<svg xmlns="http://www.w3.org/2000/svg" viewBox="0 0 210.17 176.46"><defs><style>.cls-1{fill:#fefefe;}.cls-2{fill:#0203f5;}.cls-3{fill:#f4f9f8;}.cls-4{fill:#d02c25;}.cls-5{fill:#3e3c3a;}.cls-6{fill:#c4fae5;}.cls-7{fill:#110fc9;}.cls-8{fill:#1a18b8;}.cls-9{fill:#0807e5;}.cls-10{fill:#1f1fa1;}.cls-11{fill:#06fb81;}.cls-12{fill:#41e590;}.cls-13{fill:#38e694;}.cls-14{fill:#14f31f;}.cls-15{fill:#0202f5;}</style></defs><title>flogo</title><g id="Layer_2" data-name="Layer 2"><g id="Layer_1-2" data-name="Layer 1"><path class="cls-1" d="M0,176.43Q0,89,0,1.5C0,.28.28,0,1.5,0Q105.09.05,208.67,0c1.23,0,1.5.28,1.5,1.5q-.05,86.73,0,173.45c0,1.23-.28,1.5-1.5,1.5Q104.35,176.41,0,176.43Zm69.24-45.66c-.1.45.21.45.51.47h0a1.51,1.51,0,0,1-.68,1.39.87.87,0,0,0-.25,1.17c.33.65.57-.09.87-.14.56-.08,1.29-.38,1.25.63,0,.46.31.42.49.63,1.17,1.29,3,1.79,3.91,3.43.64,1.12,3.28,1.6,4.54,1.1,1.43.19,2.4,1.53,3.9,1.57l3.93.38.58,0a28.91,28.91,0,0,0,8.22,0c4.07.46,7.67-1.36,11.39-2.48a4.62,4.62,0,0,0,3-1.88,10.54,10.54,0,0,0,5.62-3.81l0,0c1.87-.55,2.9-2.18,4.26-3.39s2.2-2.55,3.63-3.48l.58-.7c.59-.87,1.2-1.72,1.77-2.6,2.46-3.84,4.18-8.05,6.12-12.15,1-2.55,1.89-5.14,2.67-7.77.83-2.81,1.15-5.7,1.79-8.53a18,18,0,0,0,.44-5.92c.68-1.63.17-3.37.43-5,.21-.23.13-.44,0-.65a16.14,16.14,0,0,1,0-2.41,2.28,2.28,0,0,0-.68-2.44l0-.33c.19-.23.52-.31.48-.75a29.71,29.71,0,0,0-1.08-6.73A45.06,45.06,0,0,0,135,62.22c-.17-.46-.25-1.39-1.16-1-.75.33-.67.87-.31,1.6a5.48,5.48,0,0,1,.47,3.42c-.05.55-.28,1.13.3,1.56l-.09,1.29c-.45-.07-1.28.13-1.18-.47.26-1.69-1.62-2.18-1.86-3.53.35,2.31.78,4.59,3,6v1.64c-1.72.84-1.75,1.55-.13,2.66a3.69,3.69,0,0,1-.21,1.91c-.34.71-.73,1.4-1,2.14-.63,1.67-2.08,3.25-.65,5.21a.89.89,0,0,1-.27,1.16l-.14-.08.14.08a23.24,23.24,0,0,1-.89,3.71c0,.25.1.58-.2.69-.48.17-.5-.25-.56-.55a.59.59,0,0,0-.69-.52c-.51,0-.56.4-.59.81a3.49,3.49,0,0,1-.29,1.89,3.12,3.12,0,0,0-.15,3c.21.54.18.56-.28.9-.92.69-1.23-.08-1.73-.68a2,2,0,0,0,.22,1.88c.39.57.52,1.59,0,1.76-1.46.5-1,1.59-1,2.52-.06,1.19,0,2.39,0,3.58-2.86.1-2.86.1-1.88,1.88-1.35,0-1.35,0-1.36-1.84.35-.54.39-1.4,1.07-1.56,1.18-.26,1.17-1.08,1.23-2q.16-2.68.39-5.35c.35-4.16.7-8.32,0-12.49-.15-.89-.46-2,.72-2.61a1.12,1.12,0,0,0,.52-1.12c0-1.58,0-3.16,0-4.74,0-.67-.38-1.22-.92-1.1-2.57.56-5.09-.18-7.62-.13-4.17.08-8.33.2-12.5.32-1.26,0-2.45-.43-3.72-.36-1.06.06-1.47.46-1.43,1.49a7,7,0,0,1-.65,3.45c-1.22-.41-1.32-.65-.63-1.69.13-.2.25-.34.12-.56a2.38,2.38,0,0,1,.83-3.11c.74-.61,1.81-1.59,3.19-.67a2.08,2.08,0,0,0,2.19-.06c1.47-1,3.12-.32,4.48-.17a13.62,13.62,0,0,0,3.88.12c1.46-.25,2.87-.73,4.41.13.55.31,1.92.76,2.49-.55l.66,0a.67.67,0,0,0,.75.66h3.71a.68.68,0,0,0,.78-.63l.64,0c.06.64.63.91,1,1.34a9.9,9.9,0,0,0-.34,2.56c-.06,2.39.17,4.76.32,7.13.05.79-.5,1.78-.18,2.36a2.5,2.5,0,0,1,0,2.78c1.73.16,2.59-.45,2.77-2.14a13.19,13.19,0,0,0,.16-2.51c-.1-1.3-.43-2.69.25-4,.26,0,.55-.08.59-.41s-.26-.52-.59-.57c-.53-.66,0-1.33.09-1.94.18-1.2,0-2.1-1.17-2.61a.76.76,0,0,1-.55-.68,1,1,0,0,1,1.33-.57c.29.08.54.76.88.17a1.15,1.15,0,0,0-.13-1.22,1.73,1.73,0,0,0-1.46-.86c-.92.09-.78,1.13-1.21,1.71-.53-.32-1-.59-1.05-1.19h0c.91-.11.6-.8.64-1.33a15,15,0,0,0,0-4.66,5.08,5.08,0,0,0-1.6-3.77,10.18,10.18,0,0,0-6.13-2.55,79.53,79.53,0,0,0-9.22.7c-2.46.2-4.8,1.07-7.29,1.21a10.22,10.22,0,0,0-3.56.81c-1.68.79-1.59-.06-1.65-1.17-.08-1.27.9-2.29.7-3.62-.15-1-.29-2.17,1-2.83.49-.24.28-1,.15-1.53a2.77,2.77,0,0,1-.17-1.27c.7-3.33,1.08-6.79,3-9.7a9.22,9.22,0,0,1,4.5-3.6,16.39,16.39,0,0,1,7-.71c1,.09,2-.69,3-.09a7.6,7.6,0,0,0,4.63,1.2c1.33-.13,2.51-.45,3-1.88.27-.82.45-1.67.67-2.51.89-.12.6-.81.64-1.34V28.19l2-1.43c-.26,1.78.58,3.32-.85,4.5a.63.63,0,0,0,0,.9c.35.32.55-.07.78-.28a4.62,4.62,0,0,0,1.34-2.72c.08-.44-.21-1.05.48-1.23a.61.61,0,0,1,.67.36,1,1,0,0,1-.26,1.3.47.47,0,0,0-.11.59c1.46-.24,1.84.15,1.34,1.45-.24.63.2.87.46,1.26C133.6,34,135.17,34,136,35a.24.24,0,0,1,.13.27c-.69.52-1.4,1-2.32.58-.29-.14-.62-.67-.81,0s.23.76.74.77h2.73a.18.18,0,0,1,.1.22c0,.55-.23,1.18.53,1.46l.33,1.2a2.22,2.22,0,0,0-1,3,1.79,1.79,0,0,1,0,2.08c-.54.86-.39,1.76.91,1.79.92,0,1.14.3.85,1.17a1.43,1.43,0,0,0,.32,1.38,1.36,1.36,0,0,1,.21,1.54c-1.23,1.64.08,2,1.15,2.43a1.5,1.5,0,0,0,1.23-1.64c0-1.73,0-3.45,0-5.18a9.1,9.1,0,0,0-.55-3.94l-.08-1.72c-.09-.85-.15-1.7-.27-2.54a47.21,47.21,0,0,0-6.26-16.64l-1.14-1.65-1.52-2.26c.37-1.38-1.7-2.09-1-3.56a1.89,1.89,0,0,1-.31-.08c-1.61-.72-1.61-.73-.24-1.83.2-.16.49-.27.32-.68-1.44-.34-3-.06-4.44-.75-.74-.35-1-1.43-2-1.26s-1.33.23-1.67-.67,1-.42.92-1.13c-2.21-.74-2.87-.57-4.39,1.1l-1.62-.42c-.22-1.21,1.1-.66,1.5-1.22-2.8-1-2.8-1-5,.2a3.06,3.06,0,0,1-.94.16l-.05.09-.1,0c-.16-.45.67-1-.13-1.38s-3.74.55-4.42,1.24l-.66,0c-.1-.17-.18-.48-.29-.49-.38,0-.32.32-.35.57H106l-.54.15-1.31.08c-.29-.95-1.15-.94-1.85-.93-.91,0-2-.49-2.52,1-.39,1.06-2-.42-2.8.59a1.52,1.52,0,0,1-1.41.62c-.91-.05-1.28.43-1.25,1.29-.79.12-1.59.23-2.37.36A3.35,3.35,0,0,0,89,13.39a.16.16,0,0,1-.21.12,4.7,4.7,0,0,0-3.17,1c-1.17.93-2.16,2.15-4,1.8-.87-.17-1.29.36-.72,1.28A.9.9,0,0,1,80.72,19a2.55,2.55,0,0,0-.26-.45c-.27-.31-.54-.89-1-.6s-.2.76.13,1.12a.86.86,0,0,1,0,1.31c-1.07.84-.92,2.26-1.68,3.23-2.05-.09-2.58,2-3.26,3A24.41,24.41,0,0,0,71.36,34c-.06.26-.09.58-.48.44s-.56-.49-.75,0a.72.72,0,0,0,.45.93c.38.2.79.39.8.92l-.48,1.35c-1.15-.1-1.12,1.23-1.88,1.57s-.78,1-.75,1.82c.09,2.55.14,5.17-1.6,7.36a2.67,2.67,0,0,0-.53,1.84,3.39,3.39,0,0,1-.32,2.06c-.93-.88.41-2.24-.75-3.22-.54,1.74.07,3.49-.41,5.13,0,.06.18.26.3.28.34.06.49-.19.51-.48a3.36,3.36,0,0,1,.35-1.72,3.06,3.06,0,0,1,0,3c-.52,1.07-.33,1.56.66,2l-.1.64c-.77.67-.5,1.46-.27,2.25l-.07,1.34q-1.17.5,0,1l0,2c-.72.55-.72,1.1,0,1.64q0,4.09,0,8.17c-1.11.09-1.1,1.23-1.68,1.82a.84.84,0,0,0,0,1.19c.52.42.37-.75.91-.52.72.79-.47,2.12.79,2.74l.23.35,0,1.59a1.44,1.44,0,0,0-.87,2,2.47,2.47,0,0,1,.09,1.66A5.1,5.1,0,0,0,68.09,90l.11.48c-.33,1.15.84.38,1.06.77,0,.35-.28.35-.47.43-.62.25-.88.76-.55,1.29s.78,0,1.13-.17a2.67,2.67,0,0,0,1.18-3.72,10.27,10.27,0,0,1-.65-5.6,1.71,1.71,0,0,0-.62-1.72l.15-.91c.27-.05.58-.09.52-.47s-.44-1,.05-1.35c.67-.5.59.82,1.51.5-1-1.34-.68-2.92-.91-4.41a1.16,1.16,0,0,0-.66-.88l-.05-.55c1.26-.78,1.75-3.45.9-4.94l0-.87.27-.13a.51.51,0,0,1,.16,0c.81.33,1.43-.09,1.5-1.12.14-2.11.21-4.23.32-6.35a3.11,3.11,0,0,0-.41-1.54c-.19-.33,0-.57.17-.82l.19-.37h0c2.72.08,1.86-2.45,3-3.8l-1.86-.13.23-.61c.81.35,1.29-.81,2.05-.46.35.16.36,1.17,1,.55.47-.46-.18-1-.34-1.46s-1-1.43,0-1.78.72-1.13.87-1.8-.6-1.79,1.26-1.66c0-.31-.17-.55-.47-.54s-.17.39-.26.59a.37.37,0,0,0,.38.54c.33,0,.36-.32-.28-1.17l-.29-1.59a7.94,7.94,0,0,1,1.27.13c.55.15,1.08.28,1.46-.28a1,1,0,0,0-.28-1.32c-.44-.43-.55-.86-.12-1.24.74-.64.54-1.46.58-2.25,2,0,1.09-1.74,1.64-2.62.46-.51,1.38-.46,1.63-1.21a1.66,1.66,0,0,1,2.11-1.22,1.51,1.51,0,0,0,1.61-1.11c.21-.67-.5-1-1.14-1a.61.61,0,0,1-.59-.64c.85,0,1.67-.34,2.55-.07.54.17.92-.38,1.11-.79s-.33-.42-.6-.5a.86.86,0,0,1-.64-.85c0-.54.56-.72.95-.7,1.92.13,2.11-.84,1.55-2.33.93,0,1.89-1.25,2.81.09.08.11.59-.16.75-.48s.43-.63,0-.85c-1.42-.81,0-1.52.28-1.58,1.23-.31,2.31-1.11,3.62-1.13.08.38-.2.88.46,1.19.23-.59.36-1-.46-1.19.41-1.8,1.93-1.74,3.27-2,.08.49.17,1,.87.8.12,0,.29-.24.28-.35-.12-.76-.75-.33-1.15-.45-.21-1.73,1.07-1.24,2-1.31.2,1.52.23,1.53,1.82.85-.79,0-1.11-.75-1.82-.85q0-.64,0-1.27c.91.09,2,.54,2.69.19,1.36-.68,2.37-.82,3.62.21.52.43,1.34-.34,1.84-.7,1.56-1.16,3.05.43,4.55-.06,1,1.85,2.18.71,3.33.24l.31.11c0,.69.13,1.33,1,1.39.33,0,.74,0,.82.3.47,2,1.59,1.13,2.64.63l0,0c-.5.86.94,1.17.57,2-.59.26-1.09-.73-1.61-.22s.7.95.21,1.62c-1.5-.45-2.9-1.6-4.62-.62a1.46,1.46,0,0,1-1.38-.15c-1.53-1.92-3.08-.29-4.87-.33.83.9,1.92.09,2.8,1.29-2.25-.57-4.61,1.1-5.83-1.79-.24-.57-1.1-.29-1.67-.23a.53.53,0,0,0-.44.74c.3.86.18,1.64-.78,1.74s-1.73.91-2.29.51c-1.36-1-1.92.05-2.54.78a7.32,7.32,0,0,1-2.21,1.65c0-.61-.05-1-.08-1.46a1.36,1.36,0,0,0-1.33-1.38c-.75-.09-1,.29-1.42.92-.76,1.12.13,1.42.59,2,.29.34.62.64.3,1.13-.12.18-.27.5-.46.36-1.42-1.1-1.39.22-1.9,1S95.06,31.2,94.57,32c-.23.36-.35,1.08-1.1.18-.46-.55-1.75-.19-2.25.51s.27,1.14.88,1.39c.38.16.54.34.35.73-.59,1.26-1.13,2.67-2.25,3.45A2.25,2.25,0,0,0,89,40.58c.09.9-.07,1.7-1.29,1.49-.38-.06-.79-.28-.91.29a.67.67,0,0,0,.62.81c1,.18,1.19.65.54,1.43a1.67,1.67,0,0,0-.26,1.24,3.19,3.19,0,0,1-.88,2.44c-.65-.08-.21-.9-.89-.95-.41.57-.39,1.74-1.73,1.31-.54-.17-.39.62-.41,1s0,.78.51.59c2.15-.91.61,1.28,1.33,1.55-1.3,2-.59,4.42-1,6.6-.41,2.42-1.22,5.1-.28,7.71a1.71,1.71,0,0,1-1,1.91,9.65,9.65,0,0,1-2.23,1c-1.63.52-2,1.15-1.4,2.8a1.13,1.13,0,0,1-.08.93c-.71.79-.53,1.85-.92,2.74s.05,1.18.84,1c1-.18,1.72-.16,1.93,1a.72.72,0,0,0,1,.6c1.62-.54,1.38.57,1.36,1.49,0,1.25-.08,2.5-.12,3.75,0,.54.09,1.11-.35,1.55a3.91,3.91,0,0,0-.93,2.7,2.34,2.34,0,0,1-.9,1.93,1.51,1.51,0,0,0-.06,2.29c.41.42.53.38,0,.86-.89.86-.57,1.82.52,2,.36.07.34.34.39.61.12.78-.28,1.18-.94,1.51s-1.11.59-.86,1.5c.47,1.7,2.57,3.13,1,5.23-.08.1.18.41.15.61-.08.63.42,1.38-.55,1.83s-1.38-.06-1.85-1.31v6.9c1.35-1.17.41-2.31.49-3.36,0-.41-.29-1.17.54-1.06.54.07,1.45-.07,1.4,1,0,.43,0,1-.18,1.25-.4.52-.53.91-.08,1.42a1.33,1.33,0,0,1-.18,1.8c-1.48,1.45-.87,2.31.52,3.34.67.5,1.21,1.53-.14,2.17a1.22,1.22,0,0,0-.42,1.92c1.44,1.23.52,2.7.34,3.85-.35,2.18-.18,2.93,2.09,3.71.2.07.57.07.48.31-.7,1.84.87,1,1.29.94a20.18,20.18,0,0,0,5.08-1.05,1.3,1.3,0,0,0,1.06-1.54,10.47,10.47,0,0,1,.08-3.74c.88-2.52.58-5,.32-7.53a3.79,3.79,0,0,1,.77-2.48c1.95-.14.83-1.28.81-2.06a3.66,3.66,0,0,1,.08-1.61c.92-1.83.48-3.75.49-5.63,0-2.26-.21-4.55.9-6.61a4.31,4.31,0,0,0,.46-2.18c0-.7-.1-1.34.89-1.63.68-.2.54-.82-.09-1.2s-.46-.7-.1-1.29c.81-1.3,1.84-2.57.83-4.37-.44-.79-.8-2.29.31-2.73,1.59-.63,1.59-1.55,1.22-2.82-.22-.77.12-1.14.86-1.22.69.31.6.93.67,1.53.17,1.59-.37,3.12-.35,4.7,0,3.11,0,6.22,0,9.32,0,.59.15,1.27-.42,1.67-.78.56-1.4,1-1.05,2.24.07.25-1.65.44-2.2,1.25a6.9,6.9,0,0,0-.28.74c-1.42,2.78-.43,5.72-.57,8.59a4.35,4.35,0,0,0,.3,1.26c.13.48.38.78.94.6.92-.3,1.87-.12,1.78.91s-1.12,1.06-2,.76a.86.86,0,0,0-1.21.49c-.54,1.62-1.27,3.24-.77,5s0,3.52,0,5.27c0,1.09.42,2.31-.1,3.42a.88.88,0,0,0-1.38.28c-.13.19-.22.42,0,.56.49.31.93,0,1.37-.19.46.37.27.9.34,1.36s-.33,1.53.68,1.53c1.17,0,2.71.69,3.38-.78a6.07,6.07,0,0,0,.84-2.76c1.68.77,1.85,1.3.93,2.67-.41.6-1.22.92-1.24,1.79a.29.29,0,0,1-.28.06c-.4-.94-1.08-.32-1.49-.14-1.32.57-2.46.87-3.25-.76-.24-.5-.74-.36-1.15-.19s-.79.3-.55.81c.34.71-.16,1.11-.51,1.57l-.66.06c-1-.55-2-1.28-3.32-.71-.48.21-.73-.25-1.09-.46-1.26-.73-2.44-1.74-4.13-.87-1.21.62-2,0-1.8-1.33.16-.84-.13-1-.83-1.2-1-.23-1.81-.83-2.84,0a.86.86,0,0,1-1.29-.6c-.26-1.87-1.72-1.75-3-2,.17-1.06-.86-1.66-.72-4.38-.2.6-.44,1.18-.09,1.75a.52.52,0,0,0,.45-.07c.46-.64,0-1.14-.63.09-.75-.57-2-.95-.67-2.21.66-.64.21-1.48-.51-1.3-1.29.33-2.17-.52-3.26-.68l-.36-.65c.27-1.08,1.59-2.18-.19-3.2-.52-.3-.13-.81.16-1.25s.51-1.2-.29-1.46c-1.7-.55-2.16-1.81-2.08-3.4a2.74,2.74,0,0,0-.76-2c-1.55-1.85-2.28-3.93-1.33-6.33.13-.32.19-.81-.12-.88-1.49-.36-.9-1.58-.87-2.36s-1-1.78.41-2.34c.11,0-.06-.7-.51-.53s-1.14,0-1.45.59l-.49.13c-.35-.46-1-1.17-1.29-.46-.42.92-.77,2.59-.29,3.05,1.06,1,.18,1.66-.12,2.26-.39.8-.62,1.27.47,1.5.43.09.6.65,1.1.61l.19.69a5.62,5.62,0,0,1-.94-.12c-.47-.14-.85-.2-.87.46,0,.45,0,.89.62.9a7.66,7.66,0,0,0,1.09-.13.15.15,0,0,1-.12.21c-.43,2,.12,4.05.23,6.07a1.25,1.25,0,0,0,1.07,1.09l.15.81A14.78,14.78,0,0,1,60,115a2,2,0,0,0-.22,2.1,1.88,1.88,0,0,1,.16,1.52c-.1.51-.19,1.23.54,1.32s-.29-1,.48-1c1.95,1,2,3.3,3.12,4.86.61.84.83,1.91,2,2.25.15,2.4.79,3.31,2.49,3.52a.22.22,0,0,1,.16.24c-.38.14-.71.39-.47.81s.64.24,1,.09Zm56.09,23.92a14,14,0,0,1,1.1,4.26,4.14,4.14,0,0,0,6.33,2.85,2.12,2.12,0,0,0,1.21-2.68c-.81-3-1.51-6.12-2.3-9.17-.68-2.64-2-3.63-4.91-3.86a5.25,5.25,0,0,0-5.37,3.17,17.7,17.7,0,0,1-1.94,4c-.17-.13-.29-.17-.33-.26-.66-1.43-1.28-2.88-2-4.3a5.17,5.17,0,0,0-5.19-2.64c-2.95.31-4.19,1.25-4.78,3.61-.77,3.06-1.52,6.11-2.32,9.16a2.31,2.31,0,0,0,.14,2c.76,1.13,2.86,1.76,4.63,1.3a3.18,3.18,0,0,0,2.7-2.84c.2-1.42.14-3,1.17-4.55.9,2,1.69,3.67,2.47,5.38a3.74,3.74,0,0,0,6.86,0C123.6,158.42,124.44,156.72,125.36,154.69Zm-28.44-.38c0-1.69,0-3.38,0-5.07a2.54,2.54,0,0,0-1.74-2.64c-3.18-1.37-5.79.26-5.82,3.68a3.76,3.76,0,0,0,0,.49c.1.85-.25,1.15-1.11,1.12a44.35,44.35,0,0,0-4.57,0c-1.25.08-1.55-.38-1.54-1.58,0-3.42-2.61-5.08-5.8-3.75a2.52,2.52,0,0,0-1.77,2.61c.06,3.32,0,6.65,0,10a2.85,2.85,0,0,0,2.48,3.11c3.12.72,5.08-.82,5.09-4a6.48,6.48,0,0,0,0-.65c-.09-.91.32-1.28,1.23-1.25a28.87,28.87,0,0,0,3.92,0c1.63-.17,2.15.36,2.1,2-.11,3.3,2.63,5,5.74,3.62a2.56,2.56,0,0,0,1.78-2.63C96.88,157.69,96.92,156,96.92,154.31ZM96.57,164H56.49c-.51,0-1,0-1,.72s.5.83,1.08.81c.27,0,.55,0,.82,0h79.36c.5,0,1,0,1-.72s-.52-.82-1.09-.81H96.57Zm-40.66-9.88c0,1.63,0,3.27,0,4.9,0,2.16,1.32,3.31,3.7,3.31,2.53,0,3.81-1.11,3.83-3.37,0-3.11,0-6.21,0-9.32,0-1.9-.64-2.79-2.3-3.27-1.86-.54-4.13.06-4.94,1.26a2.38,2.38,0,0,0-.29,1.41C55.91,150.77,55.92,152.46,55.92,154.15Zm8.35-79.87c.61-.36.56-.65.56-.9,0-3.29,0-6.59,0-9.88,0-.5.18-1.26-.66-1.2s-.62.87-.59,1.4c0,.8.81,1.52.47,2.34C62.87,68.8,64.17,71.42,64.26,74.27Zm2.2,32.53c-.46.47-.9.84-.93,1.41s-.33,1.23.43,1.35.85-.54.82-1.11S67,107.38,66.46,106.81Zm7-81.34c1-.12,1.21-.92,1.68-1.38A.61.61,0,0,0,74.91,23c-.48-.19-.92,0-.88.58S73.57,24.69,73.41,25.47ZM70.88,88.29c1.89-1,.19-1.77.17-2.59A3.81,3.81,0,0,0,70.88,88.29ZM79.58,104A1.73,1.73,0,0,0,80,101.9c-.08-.18-.36-.39-.52-.21-.52.59-.22,1.31-.22,2C79.29,103.75,79.41,103.83,79.58,104ZM93.84,28.82c.67-.57,1.39-.89,1.24-1.73,0-.25-.46-.26-.72-.16C93.45,27.24,93.56,27.91,93.84,28.82Zm-29,100.78a.54.54,0,0,0,.6-.6,1.1,1.1,0,0,0-.83-1.07c-.6-.14-.4.47-.43.79S64.24,129.6,64.85,129.6Zm19.3-77a2.65,2.65,0,0,0,0,2.5A2.8,2.8,0,0,0,84.15,52.61ZM57.79,108.87a2.59,2.59,0,0,0-.14.51c0,.53-.1,1.1.54,1.37.19.08.42.22.58,0,.41-.6-.41-.77-.46-1.22C58.28,109.28,58.31,109,57.79,108.87Zm7-49.34c0-.38,0-.82-.51-.84a.59.59,0,0,0-.67.55.85.85,0,0,0,.64.83C64.78,60.25,64.78,59.83,64.82,59.52ZM75.9,55.46c.21.95-.27,1.54.39,2,.07,0,.33-.06.4-.16C77.12,56.66,76.81,56.21,75.9,55.46Zm-17,50.88a.55.55,0,0,0-.64-.57c-.39,0-.63.2-.56.61a.68.68,0,0,0,.67.6C58.82,107,58.91,106.71,58.91,106.34Zm5.15-22.5a.47.47,0,0,0-.46.61.67.67,0,0,0,.67.6c.43,0,.54-.28.53-.64S64.53,83.85,64.06,83.84Zm34.47,2.82a2.67,2.67,0,0,0,0-2.57A2.9,2.9,0,0,0,98.52,86.66Zm-6.8-57.14c-.34,0-.65.07-.63.5s.35.49.64.6.51,0,.55-.34S92.2,29.56,91.72,29.52ZM69.28,37.07c-.07-.34-.33-.37-.6-.36s-.55.27-.55.63.09.57.43.49A1,1,0,0,0,69.28,37.07ZM94.08,5.71c1,.18,1.52.45,2.08-.22A2,2,0,0,0,94.08,5.71Zm22.33,14.93a1.79,1.79,0,0,0,2.07,0A1.94,1.94,0,0,0,116.41,20.63ZM63.74,80.48c.62-.63.42-1.16.23-2.11A2,2,0,0,0,63.74,80.48Zm49.73-61.06c.53.13,1.12.5,1.67-.19C114.48,19,114,18.9,113.47,19.43Zm16.59,17.05c.19-.76.41-1.21-.12-1.66C129.52,35.32,129.55,35.74,130.06,36.48ZM67.84,111c.33-.65.39-1.1-.2-1.59C67.47,110,67.31,110.39,67.84,111Zm5.08-40.53c-.27.64-.38,1.09.19,1.5A1.07,1.07,0,0,0,72.92,70.43ZM84.67,13.69c0-.33-.08-.51-.36-.5s-.46.22-.47.52,0,.61.39.51S84.56,13.84,84.67,13.69Zm52.18,36.7c0,.22,0,.46.25.52s.35-.21.34-.41-.11-.46-.24-.51C136.91,49.89,136.91,50.19,136.86,50.39ZM80,121.39c.22,0,.42-.09.44-.35s0-.47-.31-.42a.69.69,0,0,0-.44.36C79.63,121.19,79.77,121.37,80,121.39Zm-3.23,5.15c0,.41.21.42.41.45s.46,0,.51-.24-.21-.34-.4-.34A1.92,1.92,0,0,0,76.8,126.54Zm9-116c-.22,0-.46,0-.52.25s.21.35.41.34.46-.11.51-.24C86.32,10.58,86,10.58,85.82,10.53ZM68.74,34.66c-.05-.19,0-.48-.35-.41s-.28.3-.25.51,0,.48.34.41S68.74,34.88,68.74,34.66ZM94.93,7.26c-.21,0-.46,0-.46.3s.25.3.46.3.46,0,.46-.3S95.14,7.28,94.93,7.26Zm4.78-1.81c0,.41.21.45.41.44s.46-.11.5-.24c.1-.29-.19-.34-.39-.34A1.92,1.92,0,0,0,99.71,5.45ZM109.5,19.4c0-.31-.22-.36-.42-.34s-.46.11-.51.24c-.1.29.19.32.39.34A.46.46,0,0,0,109.5,19.4ZM63.89,88.33c.11-.19.23-.31.23-.43s-.13-.4-.37-.31c-.09,0-.16.25-.15.38S63.75,88.18,63.89,88.33ZM98.3,90l-.35-.47c-.11.08-.27.14-.3.25s0,.43.26.42C98,90.18,98.16,90.07,98.3,90ZM87.8,36c-.09.14-.24.27-.21.35a.43.43,0,0,0,.32.24c.22,0,.4-.13.31-.37S88,36.12,87.8,36ZM80.54,78c-.12-.11-.23-.27-.32-.27A.39.39,0,0,0,80,78c0,.2,0,.43.32.36C80.38,78.38,80.44,78.19,80.54,78ZM63.22,56.71c-.13.16-.27.26-.28.37s.07.35.15.38c.24.08.37-.11.36-.33S63.33,56.9,63.22,56.71ZM130.8,67.36l-.27-.12c0,.09-.13.2-.1.27s.17.08.26.12ZM73.22,84.23c0-.09-.05-.23-.11-.26s-.18.06-.27.09,0,.23.11.26S73.12,84.27,73.22,84.23Zm-9.46,46.19-.12.27c.09,0,.2.13.27.1s.08-.17.12-.26Zm29.3-7.13c0-.09.13-.2.1-.27s-.17-.08-.26-.12-.13.2-.1.27S93,123.25,93.06,123.29Zm-29,2c-.09,0-.2-.13-.27-.1s-.08.17-.12.26.2.13.27.1S64,125.38,64.06,125.29Zm1.31-36.65c-.09,0-.2-.13-.27-.1s-.08.17-.12.26.2.13.27.1S65.33,88.73,65.37,88.64Zm13.45,5.77c0,.09-.13.2-.1.27s.17.08.26.12.13-.2.1-.26S78.91,94.45,78.81,94.41Zm41.12-74.33c.09,0,.2.13.27.1s.08-.17.12-.26-.2-.13-.26-.1S120,20,119.94,20.08ZM71,135.65c0,.09-.13.2-.1.27s.17.08.26.12.13-.2.1-.27S71.05,135.69,71,135.65ZM89.58,36.92c-.09,0-.2-.13-.27-.1s-.08.17-.12.26.2.13.26.1S89.54,37,89.58,36.92Zm-3.27-.48c0-.09-.05-.23-.11-.26s-.18.06-.27.09.05.23.11.26S86.22,36.48,86.31,36.45ZM65.24,105.29c0-.09.13-.2.1-.27s-.17-.08-.26-.12-.13.2-.1.27S65.15,105.25,65.24,105.29Zm8-31.21c0-.09-.05-.23-.11-.26s-.18.06-.27.09,0,.23.11.26S73.12,74.12,73.22,74.08ZM95.83,26.35l-.12.27c.09,0,.2.13.27.1s.08-.17.12-.26Z"/><path class="cls-1" d="M99.52,127a6.07,6.07,0,0,1-.84,2.76c-.67,1.47-2.21.78-3.38.78-1,0-.6-.95-.68-1.53s.13-1-.34-1.36V127c.51-1.11.12-2.33.1-3.42,0-1.76.51-3.52,0-5.27s.23-3.4.77-5a.86.86,0,0,1,1.21-.49c.85.3,1.9.2,2-.76s-.86-1.21-1.78-.91c-.56.18-.81-.12-.94-.6a4.35,4.35,0,0,1-.3-1.26c.15-2.86-.84-5.81.57-8.59a6.9,6.9,0,0,1,.28-.74c.55-.81,2.27-1,2.2-1.25-.35-1.21.28-1.67,1.05-2.24.56-.41.41-1.08.42-1.67,0-3.11,0-6.22,0-9.32,0-1.58.52-3.11.35-4.7-.07-.6,0-1.22-.67-1.53v-.65a7,7,0,0,0,.65-3.45c0-1,.37-1.43,1.43-1.49,1.27-.07,2.46.4,3.72.36,4.16-.12,8.33-.25,12.5-.32,2.54,0,5.06.7,7.62.13.54-.12.93.43.92,1.1,0,1.58,0,3.16,0,4.74a1.12,1.12,0,0,1-.52,1.12c-1.18.62-.88,1.71-.72,2.61.71,4.17.35,8.33,0,12.49q-.22,2.67-.39,5.35c-.05.9,0,1.72-1.23,2-.69.15-.73,1-1.07,1.56-.86,0-1.61,0-1.14,1.24a5.75,5.75,0,0,1-1.72,5.58,3.56,3.56,0,0,0-1.61,2.69,1.38,1.38,0,0,1-.82,1.32c-.89.4-1.89.59-1.94,1.87,0,.27-.38.38-.66.36-1.67-.1-2,.88-1.93,2.29,0,.57.17,1.28-.56,1.55-.92.35-.5-.94-1.12-1-.28,1.1-.52,1.33-1.66,2.23-1.4,1.1-2.34,2.69-4.36,3.13-1.43.31.13,1.52-.14,2.31a2.39,2.39,0,0,0-.79.12c-1.06.57-1.85.92-1.91-.9C102,126.58,100.22,126.27,99.52,127Zm16.72-11.52c.41-1.12.71-1.84.92-2.59.09-.34.08-.8-.44-.87a.67.67,0,0,0-.78.64A5.16,5.16,0,0,0,116.24,115.49ZM106.6,123c.9-.38,1.5-.88,1.42-1.9,0-.28-.12-.61-.46-.49-.85.3-.86,1.16-1.1,1.85C106.42,122.6,106.53,122.77,106.6,123Zm12.11-12.79c-.09,0-.2-.13-.27-.1s-.08.17-.12.26.2.13.26.1S118.66,110.32,118.7,110.23Z"/><path class="cls-2" d="M137.47,77.86l0,.33V88.72a2.78,2.78,0,0,0,0,.33l0,2.92c-1.21,1.23-1.14,2.84-1.26,4.38a6.76,6.76,0,0,1-.18,2.25c-1.2,2.51-1.24,5.37-2.46,7.85-.66,1.35-.46,2.93-1.28,4.22a13.76,13.76,0,0,0-2.48,4.54,33.21,33.21,0,0,1-4.88,9,2.21,2.21,0,0,0-.51,1.47h0c-.88.09-2-.11-1.9,1.32a5.21,5.21,0,0,1-.43.65c-1.21,1.37-2.79,2.31-4.1,3.56-.58.56-1.49,1-1.41,2l0,0c-2.26.62-3.75,2.42-5.62,3.65-.7,0-1.57-.34-2.06.15a8.24,8.24,0,0,1-3.87,2c-2.91.85-5.76,1.77-8.83,1.73-2.83,0-5.66,0-8.49,0l-2.57-.06c-.51-1.21-1.65-.37-2.45-.74a52,52,0,0,1-10.32-7c-.73-.58-.72-1.67-1.67-2-1.6-1.18-1.77-3.37-3.26-4.63-.2-.43-.7-1-.56-1.25.91-1.67-.75-1.49-1.38-2-.19-1.27-.37-3.06-1-3.59-1.51-1.23-1.07-2.85-1.65-4.21.13-.38-.2-1,.34-1.13s.61.37.87.61a1.75,1.75,0,0,1,.8,1.5c0,.46.06.87.65.91h0c.05.52-.24,1.22.67,1.3h0a.58.58,0,0,0,.63.67h0c0,1.11-.12,2.25,1.33,2.6h0a.57.57,0,0,0,.66.66l4.6,5.22c0,.44.19.67.65.64l0,0c0,.45.18.67.64.63l0,0c0,.46.18.67.63.64h0c.28,1.26,1.21,1.4,2.27,1.3l.31,0c.14.86.8.6,1.33.61h0a4.23,4.23,0,0,0,4.54,1l1.34.38c.06.59.49.63.94.63h8.58c.47,0,.88-.07.88-.68a8.16,8.16,0,0,1,2.6-.63c2.17.42,3.69-.89,5.3-2,.32,0,.71.05,1-.1a30.57,30.57,0,0,0,7.11-5.58,14.08,14.08,0,0,1,2.79-2.67,7.29,7.29,0,0,0,2.06-1.95c1.4-2,3.33-3.46,4.55-5.59a25.74,25.74,0,0,1,1.55-2.93,23.61,23.61,0,0,0,3.26-5c1.69-.71,1.8-2.52,2.5-3.85.43-.83,1.35-1.94.41-3.09l.05-.6c.32,0,.71,0,.86-.32a45.17,45.17,0,0,0,2-5.15c.22-.8,1-1.45.67-2.4-.22-1.19.72-2.11.74-3.25,2.43,0,.76-1.23.61-2V85.1c1.25-.3,1.28-1,.67-1.95l.07-4.52c.73-.22.57-.83.58-1.36,0-2,0-3.92.06-5.89.92-.67,1.38-.55,1.27.7,0,.5-.17,1.14.64,1.25C137.13,74.83,136.3,76.49,137.47,77.86Z"/><path class="cls-3" d="M99.52,78.58v.65c-.74.09-1.08.45-.86,1.22.36,1.27.36,2.19-1.22,2.82-1.11.44-.75,1.94-.31,2.73,1,1.79,0,3.06-.83,4.37-.36.59-.53.91.1,1.29s.77,1,.09,1.2c-1,.3-.89.93-.89,1.63a4.31,4.31,0,0,1-.46,2.18c-1.11,2.07-.89,4.36-.9,6.61,0,1.88.43,3.8-.49,5.63a3.66,3.66,0,0,0-.08,1.61c0,.78,1.13,1.92-.81,2.06a3.79,3.79,0,0,0-.77,2.48c.25,2.52.55,5-.32,7.53a10.47,10.47,0,0,0-.08,3.74,1.3,1.3,0,0,1-1.06,1.54,20.18,20.18,0,0,1-5.08,1.05c-.42,0-2,.89-1.29-.94.09-.24-.28-.24-.48-.31-2.27-.79-2.45-1.53-2.09-3.71.19-1.15,1.1-2.62-.34-3.85a1.22,1.22,0,0,1,.42-1.92c1.34-.64.81-1.67.14-2.17-1.39-1-2-1.89-.52-3.34a1.33,1.33,0,0,0,.18-1.8c-.45-.52-.32-.91.08-1.42.23-.29.16-.83.18-1.25.05-1-.86-.89-1.4-1-.83-.11-.51.65-.54,1.06-.08,1.05.86,2.2-.49,3.36v-6.9c.47,1.25.89,1.76,1.85,1.31s.47-1.2.55-1.83c0-.2-.23-.51-.15-.61,1.62-2.1-.48-3.52-1-5.23-.25-.91.3-1.21.86-1.5s1.06-.73.94-1.51c0-.27,0-.53-.39-.61-1.09-.22-1.41-1.19-.52-2,.5-.48.38-.44,0-.86a1.51,1.51,0,0,1,.06-2.29,2.34,2.34,0,0,0,.9-1.93,3.91,3.91,0,0,1,.93-2.7c.44-.44.33-1,.35-1.55,0-1.25.09-2.5.12-3.75,0-.92.26-2-1.36-1.49a.72.72,0,0,1-1-.6c-.21-1.2-1-1.22-1.93-1-.79.14-1.19-.24-.84-1s.22-1.94.92-2.74a1.13,1.13,0,0,0,.08-.93c-.56-1.64-.23-2.28,1.4-2.8a9.65,9.65,0,0,0,2.23-1,1.71,1.71,0,0,0,1-1.91c-.94-2.61-.13-5.3.28-7.71.37-2.18-.34-4.57,1-6.6-.71-.28.83-2.46-1.33-1.55-.46.2-.52-.27-.51-.59s-.13-1.19.41-1c1.34.43,1.32-.74,1.73-1.31.68.05.24.87.89.95a3.19,3.19,0,0,0,.88-2.44A1.67,1.67,0,0,1,88,44.61c.65-.78.48-1.25-.54-1.43a.67.67,0,0,1-.62-.81c.12-.56.53-.35.91-.29,1.22.21,1.38-.59,1.29-1.49a2.25,2.25,0,0,1,1.16-2.36c1.12-.77,1.66-2.19,2.25-3.45.18-.39,0-.57-.35-.73-.61-.25-1.38-.68-.88-1.39s1.79-1.05,2.25-.51c.75.9.86.19,1.1-.18.49-.77.86-1.6,1.38-2.36s.48-2.07,1.9-1c.19.15.34-.18.46-.36.33-.49,0-.79-.3-1.13-.47-.55-1.35-.85-.59-2,.43-.63.67-1,1.42-.92a1.36,1.36,0,0,1,1.33,1.38c0,.43,0,.86.08,1.46a7.32,7.32,0,0,0,2.21-1.65c.62-.73,1.18-1.75,2.54-.78.56.4,1.46-.43,2.29-.51s1.08-.88.78-1.74a.53.53,0,0,1,.44-.74c.58-.06,1.43-.34,1.67.23,1.23,2.89,3.58,1.22,5.83,1.79-.88-1.2-2-.39-2.8-1.29,1.79,0,3.34-1.59,4.87.33a1.46,1.46,0,0,0,1.38.15c1.72-1,3.12.16,4.62.62.49-.67-.73-1.1-.21-1.62s1,.47,1.61.22c.37-.86-1.07-1.17-.57-2A12.34,12.34,0,0,1,128,22.34a41.41,41.41,0,0,1,4.86,6,15.13,15.13,0,0,0,2.78,4.47A5.78,5.78,0,0,1,136,35c-.8-1.06-2.37-1-3.12-2.16-.26-.39-.7-.64-.46-1.26.5-1.3.12-1.68-1.34-1.45a.47.47,0,0,1,.11-.59,1,1,0,0,0,.26-1.3.61.61,0,0,0-.67-.36c-.68.18-.4.79-.48,1.23a4.62,4.62,0,0,1-1.34,2.72c-.23.21-.42.61-.78.28a.63.63,0,0,1,0-.9c1.43-1.18.6-2.71.85-4.5l-2,1.43c-.83-.4-.19-1.75-1.26-2A8,8,0,0,0,120.16,24c-3.32-.07-6.62.39-9.92.59a20.91,20.91,0,0,0-9.29,3.07C98.52,29,97,31.38,94.78,33a5.59,5.59,0,0,0-1.55,1.83c-1.87,3.46-3.8,6.85-4.61,10.82a105.09,105.09,0,0,0-1.52,13.5c-.09.48-.19,1-.26,1.43-.62,4.46-1.75,8.71-5,12.07-1.48-.31-1.49.79-1.49,1.69S81,75.84,82,75.5c1.38-.47,1.9.23,2.31,1.45a18.14,18.14,0,0,1,.28,9,63.66,63.66,0,0,0-1,15.06l-.49,3.15c-.47.13-.5.54-.53.92a35.18,35.18,0,0,0,.23,8.62,14,14,0,0,1,.24,4.7c-.41,2.67.24,5.18.79,7.73a1,1,0,0,0,.56.75,7.05,7.05,0,0,0,4.94.42,2.36,2.36,0,0,0,1.66-2.5c0-4-.21-8.08.7-12,.6-2.58.86-5.21,1.37-7.8.68-3.48.65-7.12,1.2-10.66h0c.73-.19.58-.83.66-1.33.65-4.31,1.16-8.65,2-12.93.35-1.84.8-3.68,1.09-5.53.43-2.78.56-2.94,3.46-3.12l16,0a5.58,5.58,0,0,1,3,.61c-.57,1.31-1.94.86-2.49.55-1.54-.86-2.95-.38-4.41-.13a13.62,13.62,0,0,1-3.88-.12c-1.36-.15-3-.87-4.48.17a2.08,2.08,0,0,1-2.19.06c-1.38-.92-2.45.06-3.19.67A2.38,2.38,0,0,0,99,76.32c.13.22,0,.37-.12.56C98.2,77.93,98.3,78.17,99.52,78.58Z"/><path class="cls-4" d="M125.36,154.69c-.92,2-1.76,3.72-2.47,5.47a3.74,3.74,0,0,1-6.86,0c-.78-1.71-1.57-3.42-2.47-5.38-1,1.57-1,3.13-1.17,4.55a3.18,3.18,0,0,1-2.7,2.84c-1.77.46-3.87-.17-4.63-1.3a2.31,2.31,0,0,1-.14-2c.79-3,1.55-6.11,2.32-9.16.59-2.36,1.83-3.3,4.78-3.61a5.17,5.17,0,0,1,5.19,2.64c.68,1.42,1.31,2.87,2,4.3,0,.08.16.13.33.26a17.7,17.7,0,0,0,1.94-4,5.25,5.25,0,0,1,5.37-3.17c2.94.23,4.23,1.22,4.91,3.86.79,3.05,1.48,6.13,2.3,9.17a2.12,2.12,0,0,1-1.21,2.68,4.14,4.14,0,0,1-6.33-2.85A14,14,0,0,0,125.36,154.69Z"/><path class="cls-4" d="M96.92,154.31c0,1.69,0,3.38,0,5.07A2.56,2.56,0,0,1,95.16,162c-3.11,1.35-5.86-.32-5.74-3.62.06-1.68-.46-2.21-2.1-2a28.87,28.87,0,0,1-3.92,0c-.91,0-1.31.34-1.23,1.25a6.48,6.48,0,0,1,0,.65c0,3.18-2,4.72-5.09,4a2.85,2.85,0,0,1-2.48-3.11c0-3.32,0-6.65,0-10a2.52,2.52,0,0,1,1.77-2.61c3.19-1.33,5.84.33,5.8,3.75,0,1.2.28,1.66,1.54,1.58a44.35,44.35,0,0,1,4.57,0c.86,0,1.21-.27,1.11-1.12a3.76,3.76,0,0,1,0-.49c0-3.42,2.64-5.05,5.82-3.68a2.54,2.54,0,0,1,1.74,2.64C96.88,150.93,96.92,152.62,96.92,154.31Z"/><path class="cls-5" d="M96.57,164h40.09c.57,0,1.11,0,1.09.81s-.5.72-1,.72H57.38c-.27,0-.55,0-.82,0-.58,0-1.09,0-1.08-.81s.49-.72,1-.72H96.57Z"/><path class="cls-4" d="M55.92,154.15c0-1.69,0-3.38,0-5.07a2.38,2.38,0,0,1,.29-1.41c.8-1.2,3.08-1.8,4.94-1.26,1.65.48,2.29,1.37,2.3,3.27,0,3.11,0,6.21,0,9.32,0,2.26-1.3,3.37-3.83,3.37-2.38,0-3.68-1.16-3.7-3.31C55.91,157.42,55.92,155.78,55.92,154.15Z"/><path class="cls-6" d="M125.74,26.2c1.08.25.43,1.59,1.26,2q0,1,0,1.93c-.56.45-1.16.9,0,1.36q0,.63,0,1.25c-.83.15-.57.82-.64,1.34-.22.84-.4,1.69-.67,2.51-.47,1.43-1.65,1.75-3,1.88a7.6,7.6,0,0,1-4.63-1.2c-1-.6-2,.17-3,.09a16.39,16.39,0,0,0-7,.71,9.22,9.22,0,0,0-4.5,3.6c-1.92,2.91-2.29,6.37-3,9.7a2.77,2.77,0,0,0,.17,1.27c.13.52.33,1.28-.15,1.53-1.31.66-1.17,1.82-1,2.83.2,1.34-.78,2.35-.7,3.62.07,1.11,0,2,1.65,1.17a10.22,10.22,0,0,1,3.56-.81c2.49-.14,4.83-1,7.29-1.21a79.53,79.53,0,0,1,9.22-.7,10.18,10.18,0,0,1,6.13,2.55,5.08,5.08,0,0,1,1.6,3.77,15,15,0,0,1,0,4.66c-.82.15-.58.82-.64,1.33h0A.6.6,0,0,0,127,72l-.64,0-5.24,0-.66,0a5.58,5.58,0,0,0-3-.61l-16,0c4.46-.91,9-.66,13.47-.48,3.47.14,6.94.48,10.4.73.67,0,1.29,0,1.64-.75,1.63-3.52.94-8.25-3.34-10.16-2.81-1.26-5.68-.9-8.51-.67A94.76,94.76,0,0,0,99.31,63c-1.46.38-1.91,0-1.74-1.43a13.25,13.25,0,0,0,.71-2.64c.53-3.56,1.26-7.09,1.82-10.64.48-3,2.16-5.56,3.37-8.28a4.82,4.82,0,0,0,2.37-1.87h0c3.09-1.41,6.37-1.49,9.69-1.52a9.37,9.37,0,0,1,4.7.85c2.35,1.22,4.42.1,5-2.4a4.76,4.76,0,0,1,.22-.61A12.32,12.32,0,0,0,125.74,26.2Z"/><path class="cls-3" d="M104.76,128.32c.27-.78-1.29-2,.14-2.31,2-.44,3-2,4.36-3.13,1.15-.9,1.39-1.14,1.66-2.23.62.08.19,1.37,1.12,1,.73-.27.6-1,.56-1.55-.09-1.4.26-2.38,1.93-2.29.28,0,.65-.09.66-.36.05-1.28,1.05-1.48,1.94-1.87a1.38,1.38,0,0,0,.82-1.32,3.56,3.56,0,0,1,1.61-2.69,5.75,5.75,0,0,0,1.72-5.58c-.47-1.21.28-1.27,1.14-1.24,0,1.88,0,1.88,1.36,1.84-1-1.77-1-1.77,1.88-1.88l.1.09-.1.51c-1.4,2.12-2.87,4.19-4.19,6.36-3.35,5.49-7.88,9.88-12.65,14.1-1.2,1.06-2.7,1.65-3.82,2.79Z"/><path class="cls-3" d="M128.68,98.87l-.05.6a3.74,3.74,0,0,0-.67,1.2c-.71,1.39-1.11,2.95-2.2,4.14l-.1-.09c0-1.19,0-2.39,0-3.58,0-.94-.41-2,1-2.52.51-.17.38-1.19,0-1.76a2,2,0,0,1-.22-1.88c.5.59.81,1.37,1.73.68.46-.35.49-.36.28-.9a3.12,3.12,0,0,1,.15-3A3.49,3.49,0,0,0,129,89.9c0-.4.08-.77.59-.81a.59.59,0,0,1,.69.52c.06.31.08.72.56.55.31-.11.16-.44.2-.69a23.24,23.24,0,0,0,.89-3.71h0a.89.89,0,0,0,.27-1.16c-1.43-2,0-3.54.65-5.21.27-.74.67-1.43,1-2.14l.12,0c.06,1.71-.7,3.4-.11,5.12-.19.81-.83,1.5-.63,2.41-1.12,1.78-1,3.9-1.65,5.83-.57,1.65-1.2,3.29-1.7,5C129.55,96.73,128.71,97.65,128.68,98.87Zm.16-2.38-.27-.12c0,.09-.13.2-.1.27s.17.08.26.12Z"/><path class="cls-1" d="M129.3,73.34a.76.76,0,0,0,.55.68c1.16.51,1.35,1.41,1.17,2.61-.09.61-.62,1.28-.09,1.94q0,.49,0,1c-.68,1.28-.35,2.67-.25,4a13.19,13.19,0,0,1-.16,2.51c-.18,1.69-1,2.3-2.77,2.14a2.5,2.5,0,0,0,0-2.78c-.32-.57.23-1.57.18-2.36-.15-2.38-.39-4.75-.32-7.13a9.9,9.9,0,0,1,.34-2.56Z"/><path class="cls-3" d="M60.21,95c.31-.6,1-.41,1.45-.59s.62.49.51.53c-1.41.56-.38,1.6-.41,2.34s-.61,2,.87,2.36c.31.07.24.57.12.88-1,2.4-.22,4.48,1.33,6.33a2.74,2.74,0,0,1,.76,2c-.08,1.58.38,2.85,2.08,3.4.8.26.63,1,.29,1.46s-.68,1-.16,1.25c1.78,1,.46,2.12.19,3.2l-1.74-3.1-.72-1.51a10.92,10.92,0,0,0-1.24-3.7c-1.05-2.39-1.22-5-2-7.47Z"/><path class="cls-3" d="M85.14,132.92l-1.34-.38-2.59-.94c-.32-.48-.9-.33-1.33-.53l-.34-.1a26.31,26.31,0,0,1-6.76-5l.23-.24c1.29.21,2.75.09,3,2a.86.86,0,0,0,1.29.6c1-.8,1.89-.19,2.84,0,.71.17,1,.37.83,1.2-.25,1.3.6,2,1.8,1.33,1.69-.87,2.87.14,4.13.87.36.21.61.67,1.09.46,1.3-.57,2.28.16,3.32.71-.53.4-1.15.17-1.73.25C88.1,133.34,86.65,132.54,85.14,132.92Z"/><path class="cls-7" d="M69.43,80.87l-.15.91a.3.3,0,0,0-.19,0c0-.13,0-.32-.24-.28a.15.15,0,0,0-.09.11q0,3,0,6l-.12.77c-.54,0-.71-.77-1.31-.65a2.39,2.39,0,0,1-.49-1.48,15.9,15.9,0,0,0-.64-4.76l0-1.59.27.31c1.58.68.39,2.43,1.27,3.53a4.55,4.55,0,0,0,.28-2.34,10.2,10.2,0,0,1,.16-2.9c.84-2.13.54-4.39.92-6.57.41-2.34,1.23-4.68.91-7.13-.05-.39.27-.56.62-.62l0,3.72,0,.87c-.77,1.56-.45,3.32-.9,4.94l.05.55c-.27.08-.5.19-.5.52Q69.43,77.82,69.43,80.87Z"/><path class="cls-3" d="M118.49,8.55c1.52-1.67,2.18-1.84,4.39-1.1.11.71-1.3.14-.92,1.13s.89.81,1.67.67,1.23.91,2,1.26c1.44.69,3,.41,4.44.75.17.42-.12.52-.32.68-1.38,1.1-1.38,1.1.24,1.83a1.89,1.89,0,0,0,.31.08c-.72,1.47,1.34,2.19,1,3.56l-.92-.78c-2.13-2.68-4.47-5.09-7.84-6.21h0c-.24-.7-.84-.6-1.38-.62h0C120.41,9.11,119.31,9.13,118.49,8.55Z"/><path class="cls-3" d="M66.08,126.08c-1.15-.34-1.37-1.41-2-2.25C63,122.26,62.93,120,61,119c-.77,0,.27,1.1-.48,1s-.63-.81-.54-1.32a1.88,1.88,0,0,0-.16-1.52A2,2,0,0,1,60,115a14.77,14.77,0,0,0,1-2.91l.84,2.49.07.67a34.23,34.23,0,0,0,3.21,8.15,7,7,0,0,1,1,2.61Z"/><path class="cls-7" d="M137.48,89a2.81,2.81,0,0,1,0-.33h.31a18,18,0,0,1-.44,5.92c-.65,2.82-1,5.72-1.79,8.53-.78,2.63-1.66,5.22-2.67,7.77a.65.65,0,0,0-.64-.29c.82-1.29.62-2.87,1.28-4.22,1.22-2.48,1.26-5.34,2.46-7.85a6.76,6.76,0,0,0,.18-2.25c.12-1.55.06-3.15,1.26-4.38.07.12.14.25.22.36a.26.26,0,0,0,.13,0C137.69,91.2,138.2,90.06,137.48,89Z"/><path class="cls-8" d="M134.91,71.39c0,2,0,3.92-.06,5.89,0,.52.16,1.13-.58,1.36-.13-.44.11-1-.31-1.33l-.12,0a3.69,3.69,0,0,0,.21-1.91,8,8,0,0,0,.13-2.66v-3.6l.09-1.29c.56-.65.06-1.09-.3-1.56a5.48,5.48,0,0,0-.47-3.42c-.36-.73-.44-1.26.31-1.6.91-.4,1,.53,1.16,1a45.06,45.06,0,0,1,1.91,8.17l-.32,0a23,23,0,0,1-1.24-4.75l-.41,0Z"/><path class="cls-3" d="M66.5,57.32c-1-.4-1.18-.89-.66-2a3.06,3.06,0,0,0,0-3h0a3.39,3.39,0,0,0,.32-2.06,2.67,2.67,0,0,1,.53-1.84c1.74-2.19,1.69-4.81,1.6-7.36,0-.87-.12-1.44.75-1.82s.73-1.67,1.88-1.57a54.76,54.76,0,0,0-2.23,7.72,44,44,0,0,0-1.59,8.23C66.31,54.8,67.14,56.18,66.5,57.32Z"/><path class="cls-3" d="M102.14,20.32c-1.35.23-2.87.17-3.27,2h0c-1.31,0-2.39.82-3.62,1.13-.23.06-1.7.77-.28,1.58.39.22.1.57,0,.85s-.68.59-.75.48c-.92-1.34-1.89-.07-2.81-.09l-.15-.2,3.53-3.73a.92.92,0,0,0,.91-.58c1.6-.23,2.67-1.39,3.94-2.21,1.52-.5,2.73-1.7,4.36-2l.18.19,0,1.27h0c-.9.07-2.17-.42-2,1.31Z"/><path class="cls-3" d="M77.92,23.59c.76-1,.61-2.39,1.68-3.23a.86.86,0,0,0,0-1.31c-.33-.36-.56-.84-.13-1.12s.73.29,1,.6a2.55,2.55,0,0,1,.26.45A.9.9,0,0,0,81,17.61c-.56-.92-.15-1.44.72-1.28,1.82.34,2.81-.87,4-1.8a4.7,4.7,0,0,1,3.17-1c-.51.6-1.4.74-1.77,1.5-.43.31-.89.59-1.3.93a54.3,54.3,0,0,0-7.55,7.93Z"/><path class="cls-7" d="M87.72,140.78c2.83,0,5.66,0,8.49,0,3.08,0,5.92-.89,8.83-1.73a8.24,8.24,0,0,0,3.87-2c.49-.49,1.36-.19,2.06-.15a1.17,1.17,0,0,1,0,.16,4.62,4.62,0,0,1-3,1.88c-3.72,1.11-7.32,2.94-11.39,2.48H88.31l-.58,0Z"/><path class="cls-3" d="M71.39,36.38c0-.53-.42-.72-.8-.92a.72.72,0,0,1-.45-.93c.19-.54.47-.14.75,0s.42-.18.48-.44a24.41,24.41,0,0,1,3.3-7.43c.67-1,1.2-3.12,3.26-3l.29.28-1,1.64h0a1.53,1.53,0,0,0-1,1.65h0a3.3,3.3,0,0,0-1,1.58C73.56,31.08,72.7,33.84,71.39,36.38Z"/><path class="cls-8" d="M66.5,57.32c.64-1.14-.19-2.52.59-3.64.31.13.35.42.38.7,0,2.15-.42,4.25-.58,6.36-.31,3.88-.09,7.81-.1,11.71,0,.95.5,1.89,0,2.84v3.28c-.08.55.17,1.14-.25,1.64l-.27-.31-.23-.35V74.32q0-4.09,0-8.17V64.5l0-2v-1l.07-1.34c.7-.68.07-1.51.27-2.25Z"/><path class="cls-9" d="M140.43,40.51l.08,1.72a3.5,3.5,0,0,0,.26,4,2.76,2.76,0,0,0-.05.3c-.52,0-1.3.16-1.21-.65.16-1.46-1-2.61-.77-4.09.05-.31.17-1-.57-1.14,0-.6,0-1.2,0-1.79s-.38-.82-1-.76c-.16-.35.17-.83-.29-1.11l0-1.56c1.53,1.29,1.53,1.29,2-.67.79.16.64.8.6,1.3A12.09,12.09,0,0,0,140.43,40.51Z"/><path class="cls-3" d="M139.87,53c-1.07-.48-2.38-.79-1.15-2.43a1.36,1.36,0,0,0-.21-1.54,1.43,1.43,0,0,1-.32-1.38c.29-.86.07-1.15-.85-1.17-1.3,0-1.45-.93-.91-1.79a1.79,1.79,0,0,0,0-2.08,2.22,2.22,0,0,1,1-3,8.37,8.37,0,0,0,.7,2.42c-.37,1.19.43,2.16.71,3.19.53,2-.05,4,.64,5.89C139.3,51.78,139.92,52.31,139.87,53Z"/><path class="cls-3" d="M120.16,17.62c-1.15.46-2.35,1.61-3.33-.24-1.5.49-3-1.1-4.55.06-.49.36-1.32,1.13-1.84.7-1.25-1-2.26-.89-3.62-.21-.69.34-1.78-.1-2.69-.19l-.18-.19c0-.61.52-.41.85-.46l6.23-1c1.83.17,3.73-.27,5.49.59.56.14,1.18,0,1.7.35Z"/><path class="cls-8" d="M132.27,110.66a.65.65,0,0,1,.64.29c-1.94,4.1-3.66,8.31-6.12,12.15-.57.88-1.18,1.73-1.77,2.6h-.62a2.21,2.21,0,0,1,.51-1.47,33.21,33.21,0,0,0,4.88-9A13.76,13.76,0,0,1,132.27,110.66Z"/><path class="cls-3" d="M79.91,139.44c-1.26.5-3.9,0-4.54-1.1-.93-1.63-2.74-2.14-3.91-3.43-.18-.2-.51-.16-.49-.63,0-1-.69-.71-1.25-.63-.3,0-.55.78-.87.14a.87.87,0,0,1,.25-1.17,1.51,1.51,0,0,0,.68-1.39l.9.76a3.57,3.57,0,0,0,.39.7A34.1,34.1,0,0,0,79.91,139.44Z"/><path class="cls-8" d="M79.91,139.44a34.1,34.1,0,0,1-8.84-6.74,3.57,3.57,0,0,1-.39-.7l0-1c.95.32.94,1.41,1.67,2a52,52,0,0,0,10.32,7c.8.37,1.94-.47,2.45.74-.45.1-1-.11-1.34.28C82.31,141,81.34,139.63,79.91,139.44Z"/><path class="cls-10" d="M70.76,67.9l0-3.72c.69-1.78.77-3.7,1.24-5.54,1.05-4.1,1.85-8.25,4.37-11.79.6.57.1,1-.12,1.55-.64,1.54-1.64,2.94-1.84,4.65l-.23.61A11.5,11.5,0,0,0,73,57.59h0l-.19.37c-.14.26-.37.5-.17.82a27.49,27.49,0,0,0-1.58,9Z"/><path class="cls-10" d="M71.39,36.38c1.31-2.54,2.17-5.31,3.89-7.64l0,.76a4.22,4.22,0,0,1-.24.93,94.74,94.74,0,0,0-3.86,9.06c-.74,1.87-.85,3.92-1.82,5.7l-.73.27a54.73,54.73,0,0,1,2.23-7.72Z"/><path class="cls-3" d="M69.09,81.82a.3.3,0,0,1,.19,0,1.71,1.71,0,0,1,.62,1.72,10.27,10.27,0,0,0,.65,5.6,2.67,2.67,0,0,1-1.18,3.72c-.35.16-.8.68-1.13.17s-.08-1,.55-1.29c.19-.07.45-.07.47-.43-.22-.39-1.39.38-1.06-.77,1.2-.46.33-1.41.49-2.11l.12-.77C69.45,85.71,69,83.75,69.09,81.82Z"/><path class="cls-3" d="M74.35,53.05c.2-1.71,1.2-3.11,1.84-4.65.22-.54.73-1,.12-1.55l0,0c1.25-.47,1.06-1.94,1.87-2.72l.11.1.29,1.59c-1.23.45-.47,1.48-.64,2.24s.22,1.41-.87,1.8-.2,1.17,0,1.78.8,1,.34,1.46c-.64.62-.65-.39-1-.55C75.64,52.24,75.16,53.4,74.35,53.05Z"/><path class="cls-10" d="M140.43,40.51a12.09,12.09,0,0,1-1-4.5c0-.5.18-1.14-.6-1.3l0-.63c0-.52.21-1.18-.63-1.33l0-1c-.59-.69-.3-1.85-1.26-2.34l0-.61c-.05-.52.21-1.19-.64-1.32h0c-.05-.52.19-1.19-.64-1.34l-.06-.6a.57.57,0,0,0-.61-.68h0a1.78,1.78,0,0,0-1.31-2h0c.1-.53-.28-1.16.32-1.59A47.2,47.2,0,0,1,140.15,38C140.28,38.81,140.34,39.66,140.43,40.51Z"/><path class="cls-10" d="M118.49,8.55c.82.58,1.92.56,2.67,1.28-3.11,0-5.92-1.42-9-1.63-2.51-.17-5-.5-7.42.09-.6.14-1.11.42-1.6-.16.16-.49.75-.25,1-.58l1.31-.08.54-.15h.45l.64-.08.66,0,4.56.14.1,0,.05-.09,4.45.86Z"/><path class="cls-3" d="M64.26,74.27c-.1-2.85-1.39-5.48-.23-8.25.34-.82-.43-1.54-.47-2.34,0-.53-.35-1.34.59-1.4s.66.7.66,1.2c0,3.29,0,6.59,0,9.88C64.82,73.63,64.88,73.92,64.26,74.27Z"/><path class="cls-10" d="M120.16,17.62l-1.95-.6c0-.27.12-.61.46-.53A18.34,18.34,0,0,1,127,20.72l3.88,3.55c.51.61.47,1.6,1.31,2a.63.63,0,0,0,.66.66l0,1.4a41.4,41.4,0,0,0-4.86-6,12.34,12.34,0,0,0-3.11-2.25l0,0a8.18,8.18,0,0,0-4.42-2.33Z"/><path class="cls-3" d="M71,67.77a27.49,27.49,0,0,1,1.58-9A3.11,3.11,0,0,1,73,60.32c-.11,2.12-.18,4.23-.32,6.35-.07,1-.69,1.44-1.5,1.12A.51.51,0,0,0,71,67.77Z"/><path class="cls-3" d="M104.11,7.55c-.25.33-.84.09-1,.58l-1,.1c-1,.38-2.06,0-3,.6l-.34.34c-1.61-.2-3,.55-4.36,1.18l-.19-.19c0-.86.34-1.34,1.25-1.29a1.52,1.52,0,0,0,1.41-.62c.78-1,2.41.47,2.8-.59.56-1.52,1.61-1,2.52-1C103,6.61,103.82,6.6,104.11,7.55Z"/><path class="cls-3" d="M72,123.09c.12.95,1.16,1.55,1,2.61l-.23.24a31.6,31.6,0,0,1-3.64-4.36c-.4-.53-.47-1.37-1.33-1.5,0-.23.06-.45-.18-.6l0-.59c1.09.16,2,1,3.26.68.71-.18,1.16.66.51,1.3C70.06,122.14,71.28,122.51,72,123.09Z"/><path class="cls-3" d="M59.59,102.14c-.5,0-.68-.52-1.1-.61-1.09-.23-.86-.69-.47-1.5.29-.6,1.17-1.23.12-2.26-.48-.47-.13-2.13.29-3.05.33-.71.94,0,1.29.46Z"/><path class="cls-3" d="M66.25,81.5a15.9,15.9,0,0,1,.64,4.76,2.39,2.39,0,0,0,.49,1.48c-.07.86.85,1.41.71,2.29a5.1,5.1,0,0,1-2.62-4.83,2.47,2.47,0,0,0-.09-1.66A1.44,1.44,0,0,1,66.25,81.5Z"/><path class="cls-3" d="M91.37,26.23c.55,1.49.37,2.45-1.55,2.33-.39,0-.94.16-.95.7a.86.86,0,0,0,.64.85c.28.08.81,0,.6.5s-.57,1-1.11.79c-.89-.27-1.7.12-2.55.07l-.2-.17a25.26,25.26,0,0,1,5-5.27Z"/><path class="cls-3" d="M99.52,127c.7-.74,2.5-.43,2.54.52.06,1.82.84,1.47,1.91.9a2.39,2.39,0,0,1,.79-.12l.26.25a3.94,3.94,0,0,1-1.57,1.08l-4.23,1.82c0-.87.83-1.19,1.24-1.79C101.38,128.31,101.2,127.78,99.52,127Z"/><path class="cls-10" d="M59.59,102.14l.13-7,.49-.13,1.31,7.43c-1.19-.57-.18-2-1.12-2.93a24.53,24.53,0,0,0-.1,4.59v.6l-.09.77c-.52-.31-.11-1.06-.64-1.36a.14.14,0,0,0,.12-.21c.37-.34.28-.72.1-1.1Z"/><path class="cls-3" d="M98.14,132.24a8.17,8.17,0,0,0-2.6.63L92,132.81c.35-.46.85-.86.51-1.57-.24-.5.21-.66.55-.81s.9-.32,1.15.19c.79,1.63,1.93,1.33,3.25.76.42-.18,1.09-.8,1.49.14C98.69,131.78,98.23,131.8,98.14,132.24Z"/><path class="cls-3" d="M86.45,31.47a.61.61,0,0,0,.59.64c.63.08,1.35.38,1.14,1a1.51,1.51,0,0,1-1.61,1.11,1.66,1.66,0,0,0-2.11,1.22c-.24.75-1.16.69-1.63,1.21l-.26-.24c.94-1.92,2.54-3.37,3.68-5.15Z"/><path class="cls-10" d="M116.55,133.27c-.08-1,.83-1.46,1.41-2,1.31-1.25,2.89-2.2,4.1-3.56a5.15,5.15,0,0,0,.43-.65c.64-.2,1.1-.87,1.87-.71l.08.08c-1.43.93-2.37,2.37-3.63,3.48S118.42,132.71,116.55,133.27Z"/><path class="cls-7" d="M87.07,15c.36-.77,1.26-.9,1.77-1.5a.16.16,0,0,0,.21-.12,45.77,45.77,0,0,1,5.38-2.87l.57,0a1.58,1.58,0,0,1-.92,1.07c-2.49,1.11-4.54,3-7,4.09Z"/><path class="cls-3" d="M81.2,39.31c0,.79.16,1.61-.58,2.25-.44.38-.32.81.12,1.24A1,1,0,0,1,81,44.11c-.38.56-.91.42-1.46.28a7.9,7.9,0,0,0-1.27-.13l-.11-.1a26,26,0,0,1,2.77-5.08Z"/><path class="cls-3" d="M69.43,80.87q0-3,0-6.09c0-.34.23-.44.5-.52a1.16,1.16,0,0,1,.66.88c.23,1.49-.1,3.07.91,4.41-.92.31-.84-1-1.51-.5-.49.36-.14.89-.05,1.35S69.69,80.81,69.43,80.87Z"/><path class="cls-3" d="M129.3,73.34H128c-.36-.42-.93-.69-1-1.34a.6.6,0,0,1,.65-.63c.08.6.52.88,1.05,1.19.43-.58.29-1.62,1.21-1.71a1.73,1.73,0,0,1,1.46.86,1.15,1.15,0,0,1,.13,1.22c-.34.59-.58-.09-.88-.17A1,1,0,0,0,129.3,73.34Z"/><path class="cls-10" d="M136.56,70.41l.32,0A29.71,29.71,0,0,1,138,77.11c0,.44-.3.52-.48.75-1.18-1.37-.35-3-.64-4.52A10.38,10.38,0,0,0,136.56,70.41Z"/><path class="cls-3" d="M73,57.59a11.5,11.5,0,0,1,1.17-3.93l1.86.13C74.82,55.14,75.68,57.67,73,57.59Z"/><path class="cls-3" d="M134.19,69.09v2c-2.27-1.37-2.7-3.65-3-6,.25,1.35,2.13,1.84,1.86,3.53C132.91,69.22,133.74,69,134.19,69.09Z"/><path class="cls-8" d="M137.8,88.73h-.31q0-5.26,0-10.53a2.28,2.28,0,0,1,.68,2.44,16.21,16.21,0,0,0,0,2.41c0,.22,0,.44,0,.66C138,85.35,138.48,87.09,137.8,88.73Z"/><path class="cls-3" d="M116.87,8.13l-4.45-.86a3.06,3.06,0,0,0,.94-.16c2.22-1.17,2.21-1.18,5-.2C118,7.47,116.66,6.93,116.87,8.13Z"/><path class="cls-10" d="M61.85,114.6,61,112.11l-.15-.81c-.08-1.55-.78-3-.61-4.59l.62,0A16.56,16.56,0,0,0,62,112.18,2.26,2.26,0,0,1,61.85,114.6Z"/><path class="cls-8" d="M92,132.81l3.55.05c0,.6-.41.68-.88.68H86.09c-.46,0-.88,0-.94-.63,1.51-.38,3,.42,4.46.2.58-.08,1.2.15,1.73-.25Z"/><path class="cls-3" d="M94.42,10.51A45.77,45.77,0,0,0,89,13.39a3.35,3.35,0,0,1,2.85-2.87c.79-.14,1.58-.24,2.37-.36l.19.19A.62.62,0,0,0,94.42,10.51Z"/><path class="cls-3" d="M66,74.32v5.24c-1.26-.63-.07-2-.79-2.74-.54-.23-.39.94-.91.52a.84.84,0,0,1,0-1.19C64.95,75.55,64.94,74.41,66,74.32Z"/><path class="cls-3" d="M120.47,17.74a8.18,8.18,0,0,1,4.42,2.33c-1,.5-2.17,1.37-2.64-.63-.08-.34-.49-.28-.82-.3C120.6,19.06,120.46,18.43,120.47,17.74Z"/><path class="cls-10" d="M111,137.05a1.17,1.17,0,0,0,0-.16c1.87-1.22,3.35-3,5.62-3.65A10.54,10.54,0,0,1,111,137.05Z"/><path class="cls-10" d="M70.7,131l0,1-.9-.76h0l-.51-.47,0,0c-.24-.26-.07-.75-.51-.89a.22.22,0,0,0-.17-.24l-1.87-3.2.74,0C68.93,127.63,69.1,129.82,70.7,131Z"/><path class="cls-3" d="M60.25,106.71c-.17,1.58.53,3,.61,4.59a1.25,1.25,0,0,1-1.07-1.09c-.11-2-.66-4-.23-6.07.53.31.13,1.05.64,1.36Z"/><path class="cls-10" d="M98.14,132.24c.09-.44.55-.46.8-.71a.29.29,0,0,0,.28-.06l4.23-1.82q0,.31,0,.62C101.83,131.35,100.31,132.65,98.14,132.24Z"/><path class="cls-3" d="M112.26,7.34,107.7,7.2c.69-.69,3.75-1.56,4.42-1.24S112.1,6.89,112.26,7.34Z"/><path class="cls-3" d="M65.81,52.39a3.36,3.36,0,0,0-.35,1.72c0,.29-.17.53-.51.48-.12,0-.32-.22-.3-.28.48-1.64-.14-3.39.41-5.13,1.16,1-.18,2.33.75,3.22Z"/><path class="cls-10" d="M139.87,53c.05-.68-.57-1.21-.41-1.91.87.58,1.39.63,1.3-.7s0-2.6-.05-3.9a2.87,2.87,0,0,1,.05-.3h.29c0,1.73,0,3.45,0,5.18A1.5,1.5,0,0,1,139.87,53Z"/><path class="cls-3" d="M69.88,73.71c.45-1.62.13-3.38.9-4.94C71.63,70.26,71.15,72.93,69.88,73.71Z"/><path class="cls-7" d="M141.06,46.17h-.29a3.5,3.5,0,0,1-.26-4A9.1,9.1,0,0,1,141.06,46.17Z"/><path class="cls-3" d="M66.7,126.41l1.87,3.2c-1.7-.21-2.34-1.12-2.49-3.52l.06-.05Z"/><path class="cls-3" d="M121.12,72l5.24,0a.68.68,0,0,1-.78.63h-3.71A.67.67,0,0,1,121.12,72Z"/><path class="cls-3" d="M66.46,106.81c.52.58.3,1.14.32,1.65s-.11,1.22-.82,1.11-.46-.87-.43-1.35S66,107.28,66.46,106.81Z"/><path class="cls-10" d="M67.59,118.9l0,.59-.84-.32h0a.59.59,0,0,0-.63-.67h0c-.07-.51.17-1.18-.67-1.3h0v-2l1.74,3.1Z"/><path class="cls-3" d="M136.44,36.69h-2.73c-.51,0-.89-.22-.74-.77s.52-.16.81,0c.92.44,1.63-.06,2.32-.58C136.62,35.67,136.37,36.22,136.44,36.69Z"/><path class="cls-10" d="M138.11,42a8.37,8.37,0,0,1-.7-2.42l-.33-1.2.09-.33c.57-.06,1,.08,1,.76s0,1.2,0,1.79Z"/><path class="cls-10" d="M130.32,16.64l.92.78,1.52,2.26-.47.59a.6.6,0,0,0-.64-.63A.66.66,0,0,0,131,19l-.07-.57C130.94,17.74,130,17.39,130.32,16.64Z"/><path class="cls-9" d="M132.28,20.27l.47-.59,1.14,1.65c-.59.43-.21,1.06-.32,1.59A2.86,2.86,0,0,1,132.28,20.27Z"/><path class="cls-3" d="M73.41,25.47c.16-.78.66-1.21.62-1.86s.4-.77.88-.58a.61.61,0,0,1,.19,1.06C74.62,24.55,74.42,25.35,73.41,25.47Z"/><path class="cls-3" d="M134.19,72.69a8,8,0,0,1-.13,2.66C132.44,74.23,132.47,73.53,134.19,72.69Z"/><path class="cls-10" d="M88.31,141.43h8.22A28.92,28.92,0,0,1,88.31,141.43Z"/><path class="cls-10" d="M68.09,90c.14-.88-.78-1.43-.71-2.29.61-.12.77.64,1.31.65-.17.7.71,1.65-.49,2.11Z"/><path class="cls-3" d="M82.84,36.69c-.54.87.35,2.65-1.64,2.62l-.25-.23,1.63-2.63Z"/><path class="cls-3" d="M59.78,102.83c.18.39.28.77-.1,1.1a7.65,7.65,0,0,1-1.09.13c-.58,0-.64-.45-.62-.9,0-.66.4-.6.87-.46A5.62,5.62,0,0,0,59.78,102.83Z"/><path class="cls-3" d="M70.88,88.29a3.81,3.81,0,0,1,.17-2.59C71.07,86.52,72.77,87.27,70.88,88.29Z"/><path class="cls-10" d="M83.81,141c.38-.39.89-.19,1.34-.28l2.57.06v.6Z"/><path class="cls-3" d="M79.58,104c-.17-.2-.29-.27-.29-.35,0-.67-.3-1.4.22-2,.16-.18.44,0,.52.21A1.73,1.73,0,0,1,79.58,104Z"/><path class="cls-3" d="M93.84,28.82c-.28-.91-.39-1.57.52-1.89.26-.09.67-.08.72.16C95.23,27.93,94.5,28.24,93.84,28.82Z"/><path class="cls-10" d="M136.44,36.69c-.07-.47.18-1-.34-1.38A.24.24,0,0,0,136,35a5.77,5.77,0,0,0-.29-2.26c.65.08.49.6.52,1s0,.88.61,1l0,.62q0,.78,0,1.56l-.33,0A.18.18,0,0,0,136.44,36.69Z"/><path class="cls-3" d="M64.85,129.6c-.61,0-.69-.42-.66-.88s-.17-.93.43-.79a1.1,1.1,0,0,1,.83,1.07A.54.54,0,0,1,64.85,129.6Z"/><path class="cls-3" d="M84.15,52.61a2.8,2.8,0,0,1,0,2.5A2.65,2.65,0,0,1,84.15,52.61Z"/><path class="cls-3" d="M57.79,108.87c.52.1.49.41.52.65,0,.46.87.62.46,1.22-.15.23-.38.09-.58,0-.65-.27-.57-.83-.54-1.37A2.59,2.59,0,0,1,57.79,108.87Z"/><path class="cls-3" d="M64.82,59.52c0,.31,0,.72-.54.54a.85.85,0,0,1-.64-.83.59.59,0,0,1,.67-.55C64.86,58.71,64.8,59.14,64.82,59.52Z"/><path class="cls-3" d="M104.1,19c.71.1,1,.9,1.82.85-1.59.68-1.62.67-1.82-.85Z"/><path class="cls-3" d="M75.9,55.46c.91.75,1.22,1.2.79,1.83-.07.1-.33.21-.4.16C75.64,57,76.11,56.41,75.9,55.46Z"/><path class="cls-3" d="M58.91,106.34c0,.36-.09.66-.53.64a.68.68,0,0,1-.67-.6c-.07-.41.17-.6.56-.61A.55.55,0,0,1,58.91,106.34Z"/><path class="cls-3" d="M94.28,127v.65c-.44.19-.88.5-1.37.19-.23-.15-.14-.37,0-.56A.88.88,0,0,1,94.28,127Z"/><path class="cls-3" d="M64.06,83.84c.47,0,.72.16.74.57s-.09.66-.53.64a.67.67,0,0,1-.67-.6A.47.47,0,0,1,64.06,83.84Z"/><path class="cls-3" d="M72.3,121.32c.32.54.82,1,.37,1.68a.52.52,0,0,1-.45.07C71.85,122.5,72.1,121.92,72.3,121.32Z"/><path class="cls-3" d="M98.52,86.66a2.9,2.9,0,0,1,0-2.57A2.67,2.67,0,0,1,98.52,86.66Z"/><path class="cls-3" d="M91.72,29.52c.48,0,.61.35.55.76s-.24.46-.55.34-.62-.21-.64-.6S91.38,29.52,91.72,29.52Z"/><path class="cls-3" d="M69.28,37.07a1,1,0,0,1-.72.76c-.35.08-.43-.21-.43-.49s.15-.61.55-.63S69.21,36.73,69.28,37.07Z"/><path class="cls-3" d="M94.08,5.71a2,2,0,0,1,2.08-.22C95.6,6.16,95,5.89,94.08,5.71Z"/><path class="cls-3" d="M116.41,20.63a1.94,1.94,0,0,1,2.07,0A1.79,1.79,0,0,1,116.41,20.63Z"/><path class="cls-3" d="M63.74,80.48A2,2,0,0,1,64,78.37C64.16,79.33,64.37,79.86,63.74,80.48Z"/><path class="cls-3" d="M113.47,19.43c.49-.53,1-.46,1.67-.19C114.59,19.93,114,19.56,113.47,19.43Z"/><path class="cls-3" d="M130.06,36.48c-.51-.74-.54-1.16-.12-1.66C130.47,35.27,130.25,35.72,130.06,36.48Z"/><path class="cls-3" d="M102.14,20.32c.4.13,1-.3,1.15.45,0,.1-.16.31-.28.35-.7.2-.79-.31-.87-.8Z"/><path class="cls-3" d="M67.84,111c-.53-.58-.37-1-.2-1.59C68.23,109.87,68.17,110.31,67.84,111Z"/><path class="cls-3" d="M72.92,70.43a1.07,1.07,0,0,1,.19,1.5C72.54,71.52,72.65,71.08,72.92,70.43Z"/><path class="cls-3" d="M66.4,58c-.2.74.43,1.57-.27,2.25C65.9,59.43,65.63,58.63,66.4,58Z"/><path class="cls-3" d="M84.67,13.69c-.12.15-.24.48-.44.54s-.4-.24-.39-.51.14-.51.47-.52S84.67,13.36,84.67,13.69Z"/><path class="cls-3" d="M79.2,46.43c0,.27,0,.58-.35.59a.37.37,0,0,1-.38-.54c.09-.2-.12-.58.26-.59S79.19,46.12,79.2,46.43Z"/><path class="cls-3" d="M66,64.5v1.64C65.33,65.6,65.33,65,66,64.5Z"/><path class="cls-3" d="M68.73,129.85c.44.15.27.64.51.89-.35.16-.76.31-1-.09S68.35,130,68.73,129.85Z"/><path class="cls-3" d="M136.86,50.39c.05-.19.05-.5.35-.39.13,0,.22.33.24.51s0,.48-.34.41S136.85,50.6,136.86,50.39Z"/><path class="cls-3" d="M80,121.39c-.27,0-.4-.2-.31-.41a.69.69,0,0,1,.44-.36c.28,0,.32.21.31.42S80.25,121.37,80,121.39Z"/><path class="cls-3" d="M136.55,36.91l.33,0c.45.28.12.76.29,1.11l-.09.33C136.32,38.09,136.54,37.46,136.55,36.91Z"/><path class="cls-3" d="M127.66,71.37c.07-.52-.18-1.18.64-1.33C128.26,70.56,128.57,71.26,127.66,71.37Z"/><path class="cls-3" d="M76.8,126.54a1.92,1.92,0,0,1,.52-.14c.2,0,.48,0,.4.34s-.3.27-.51.24S76.77,126.95,76.8,126.54Z"/><path class="cls-3" d="M85.82,10.53c.19.05.5.05.39.35,0,.13-.33.22-.51.24s-.48,0-.41-.34S85.6,10.52,85.82,10.53Z"/><path class="cls-3" d="M68.74,34.66c0,.22,0,.46-.26.51s-.32-.21-.34-.41,0-.46.25-.51S68.68,34.47,68.74,34.66Z"/><path class="cls-3" d="M98.87,22.29c.81.15.68.6.46,1.19-.65-.31-.37-.81-.46-1.19Z"/><path class="cls-3" d="M126.36,34.07c.06-.52-.19-1.19.64-1.34C127,33.26,127.25,33.94,126.36,34.07Z"/><path class="cls-3" d="M94.93,7.26c.21,0,.46,0,.46.3s-.26.29-.46.3-.47,0-.46-.3S94.72,7.27,94.93,7.26Z"/><path class="cls-3" d="M99.71,5.45a1.92,1.92,0,0,1,.52-.14c.2,0,.49,0,.39.34,0,.13-.32.22-.5.24S99.68,5.86,99.71,5.45Z"/><path class="cls-3" d="M109.5,19.4a.46.46,0,0,1-.53.24c-.2,0-.5-.05-.39-.34,0-.13.33-.22.51-.24S109.53,19.08,109.5,19.4Z"/><path class="cls-3" d="M127,31.48c-1.16-.46-.55-.91,0-1.36Q127,30.8,127,31.48Z"/><path class="cls-3" d="M134,66.24c.36.47.86.91.3,1.56C133.7,67.37,133.92,66.79,134,66.24Z"/><path class="cls-3" d="M63.89,88.33c-.13-.15-.27-.25-.28-.36s.06-.35.15-.38c.24-.09.38.09.37.31S64,88.14,63.89,88.33Z"/><path class="cls-3" d="M130.94,79.56q0-.49,0-1c.33,0,.64.13.59.57S131.2,79.51,130.94,79.56Z"/><path class="cls-3" d="M98.3,90c-.14.07-.26.18-.39.19-.28,0-.32-.22-.26-.42s.2-.16.3-.25Z"/><path class="cls-3" d="M87.8,36c.17.09.38.12.41.22s-.09.38-.31.37a.43.43,0,0,1-.32-.24C87.56,36.31,87.71,36.17,87.8,36Z"/><path class="cls-3" d="M80.54,78c-.1.15-.16.34-.26.37-.27.07-.35-.16-.32-.36a.39.39,0,0,1,.26-.27C80.32,77.76,80.42,77.92,80.54,78Z"/><path class="cls-3" d="M66.05,61.55v1Q64.89,62.06,66.05,61.55Z"/><path class="cls-3" d="M63.22,56.71c.11.19.23.3.24.42s-.12.41-.36.33c-.09,0-.16-.25-.15-.38S63.09,56.88,63.22,56.71Z"/><path class="cls-3" d="M107,7.24l-.64.08c0-.25,0-.59.35-.57C106.86,6.76,107,7.07,107,7.24Z"/><path class="cls-3" d="M130.8,67.36l-.12.27c-.09,0-.23-.06-.26-.12s.06-.18.1-.27Z"/><path class="cls-3" d="M73.22,84.23c-.09,0-.21.12-.27.09s-.08-.17-.11-.26.21-.12.27-.09S73.18,84.14,73.22,84.23Z"/><path class="cls-3" d="M63.76,130.42l.27.12c0,.09-.06.23-.12.26s-.18-.06-.27-.1Z"/><path class="cls-3" d="M93.06,123.29c-.09,0-.23-.06-.26-.12s.06-.18.1-.27.23.06.26.12S93.1,123.2,93.06,123.29Z"/><path class="cls-3" d="M64.06,125.29c0,.09-.06.23-.12.26s-.18-.06-.27-.1.06-.23.12-.26S64,125.25,64.06,125.29Z"/><path class="cls-3" d="M65.37,88.64c0,.09-.06.23-.12.26s-.17-.06-.27-.1.06-.23.12-.26S65.27,88.6,65.37,88.64Z"/><path class="cls-10" d="M124.39,125.7H125l-.58.7-.08-.08,0-.62Z"/><path class="cls-3" d="M78.82,94.41c.09,0,.23.06.26.13s-.06.17-.1.26-.23-.06-.26-.12S78.78,94.5,78.82,94.41Z"/><path class="cls-3" d="M119.94,20.08c0-.09.06-.23.13-.26s.17.06.26.1-.06.23-.12.26S120,20.12,119.94,20.08Z"/><path class="cls-3" d="M71,135.65c.09,0,.23.06.26.13s-.06.17-.1.27-.23-.06-.26-.12S70.92,135.74,71,135.65Z"/><path class="cls-3" d="M89.58,36.92c0,.09-.06.23-.13.26s-.17-.06-.26-.1.06-.23.12-.26S89.49,36.88,89.58,36.92Z"/><path class="cls-3" d="M86.31,36.45c-.09,0-.21.12-.27.09s-.08-.17-.11-.26.21-.12.27-.09S86.27,36.36,86.31,36.45Z"/><path class="cls-3" d="M65.24,105.29c-.09,0-.23-.06-.26-.12s.06-.17.1-.27.23.06.26.12S65.28,105.2,65.24,105.29Z"/><path class="cls-3" d="M73.22,74.08c-.09,0-.21.12-.27.09s-.08-.17-.11-.26.21-.12.27-.09S73.18,74,73.22,74.08Z"/><path class="cls-3" d="M95.83,26.35l.27.12c0,.09-.06.23-.12.26s-.18-.06-.27-.1Z"/><path class="cls-2" d="M138.23,83.69c0-.22,0-.44,0-.66C138.36,83.24,138.44,83.46,138.23,83.69Z"/><path class="cls-3" d="M69.27,130.77l.51.47C69.48,131.23,69.17,131.23,69.27,130.77Z"/><path class="cls-3" d="M106,7.32l-.54.15Z"/><path class="cls-3" d="M131.92,85.78l-.14-.08.14.08Z"/><path class="cls-3" d="M72.78,57.95l.19-.37Z"/><path class="cls-3" d="M116.24,115.49a5.16,5.16,0,0,1-.3-2.82.67.67,0,0,1,.78-.64c.52.06.54.53.44.87C117,113.65,116.65,114.37,116.24,115.49Z"/><path class="cls-3" d="M106.6,123c-.07-.25-.18-.42-.14-.54.24-.69.25-1.56,1.1-1.85.34-.12.44.21.46.49C108.09,122.15,107.49,122.65,106.6,123Z"/><path class="cls-3" d="M118.7,110.23c0,.09-.06.23-.13.26s-.17-.06-.26-.1.06-.23.12-.26S118.61,110.19,118.7,110.23Z"/><path class="cls-8" d="M103.44,130.27q0-.31,0-.62a3.94,3.94,0,0,0,1.57-1.08c1.12-1.14,2.62-1.73,3.82-2.79,4.76-4.22,9.3-8.61,12.65-14.1,1.32-2.17,2.79-4.24,4.19-6.36l.05,1.09a23.61,23.61,0,0,1-3.26,5,25.74,25.74,0,0,0-1.55,2.93c-1.22,2.13-3.15,3.62-4.55,5.59a7.29,7.29,0,0,1-2.06,1.95,14.08,14.08,0,0,0-2.79,2.67,30.57,30.57,0,0,1-7.11,5.58C104.15,130.32,103.77,130.24,103.44,130.27Z"/><path class="cls-9" d="M65.5,115.15v2c-.59,0-.7-.45-.65-.91a1.75,1.75,0,0,0-.8-1.5c-.26-.24-.48-.73-.87-.61s-.21.75-.34,1.13l-.91,0-.07-.67a2.26,2.26,0,0,0,.16-2.42,16.56,16.56,0,0,1-1.13-5.43c-.15-.68.5-1.59-.57-2q0-.3,0-.6c1.21-.23,1.28.51,1.27,1.42,0,1.93,1.1,3.47,1.9,5.12.16,1.11-.26,2.47,1.3,3Z"/><path class="cls-10" d="M67.82,120.08c.86.13.93,1,1.33,1.5a31.6,31.6,0,0,0,3.64,4.36,26.31,26.31,0,0,0,6.76,5c.07.17.18.21.34.1.43.2,1,.06,1.33.53-.65.33-1.3-.16-1.95,0h0c-.16-.83-.82-.55-1.33-.61l-.31,0c-.61-.69-1.21-1.4-2.27-1.3h0a.6.6,0,0,0-.63-.64l0,0a.6.6,0,0,0-.64-.63l0,0a.61.61,0,0,0-.65-.64l-4.6-5.22a.6.6,0,0,0-.66-.66h0Z"/><path class="cls-10" d="M61.92,115.27l.91,0c.58,1.36.14,3,1.65,4.21.65.53.83,2.32,1,3.59l-.37.33A34.23,34.23,0,0,1,61.92,115.27Z"/><path class="cls-9" d="M136.56,70.41a10.38,10.38,0,0,1,.27,2.93c-.81-.1-.68-.74-.64-1.25.11-1.26-.35-1.37-1.27-.7q0-2.84,0-5.69l.41,0A23,23,0,0,0,136.56,70.41Z"/><path class="cls-8" d="M128.68,98.87c0-1.22.86-2.14,1.2-3.25.5-1.67,1.13-3.31,1.7-5a.59.59,0,0,0,.6.33c.36.95-.46,1.6-.67,2.4a45.17,45.17,0,0,1-2,5.15C129.39,98.9,129,98.84,128.68,98.87Z"/><path class="cls-7" d="M125.72,106.41l-.05-1.09.1-.51c1.08-1.19,1.48-2.75,2.2-4.14a3.74,3.74,0,0,1,.67-1.2c.94,1.15,0,2.27-.41,3.09C127.53,103.89,127.41,105.7,125.72,106.41Z"/><path class="cls-10" d="M132.18,91a.59.59,0,0,1-.6-.33c.61-1.93.52-4.05,1.65-5.83l.31.27q0,.32,0,.64c-1.1.4-.43,1.33-.61,2C132.9,88.88,132,89.8,132.18,91Z"/><path class="cls-9" d="M65.13,123.42l.37-.33c.62.55,2.29.36,1.38,2-.13.24.36.82.56,1.25l-.74,0-.56-.38A7,7,0,0,0,65.13,123.42Z"/><path class="cls-7" d="M79.27,131.57c.65-.13,1.29.36,1.95,0l2.59.94A4.23,4.23,0,0,1,79.27,131.57Z"/><path class="cls-9" d="M67.82,120.08l.3,1.68c-1.45-.35-1.36-1.49-1.33-2.6l.84.32C67.88,119.63,67.84,119.86,67.82,120.08Z"/><path class="cls-7" d="M133.53,85.1l-.31-.27c-.19-.91.44-1.6.63-2.4,0,.29,0,.57.35.73C134.81,84.09,134.78,84.8,133.53,85.1Z"/><path class="cls-10" d="M134.21,83.15c-.3-.16-.33-.44-.35-.73-.59-1.72.17-3.41.11-5.12.42.37.18.89.31,1.33Q134.24,80.89,134.21,83.15Z"/><path class="cls-9" d="M132.92,87.75c.18-.68-.49-1.61.61-2C133.68,86.51,135.35,87.75,132.92,87.75Z"/><path class="cls-7" d="M75.34,129.61c1.06-.09,1.66.61,2.27,1.3C76.55,131,75.62,130.87,75.34,129.61Z"/><path class="cls-8" d="M124.39,125.7l0,.62c-.77-.16-1.23.51-1.87.71C122.43,125.59,123.51,125.8,124.39,125.7Z"/><path class="cls-8" d="M137.48,89c.72,1,.21,2.16.32,3.23a.26.26,0,0,1-.13,0c-.08-.12-.15-.24-.22-.36Q137.46,90.5,137.48,89Z"/><path class="cls-9" d="M65.49,117.19c.84.12.59.79.67,1.3C65.25,118.41,65.54,117.71,65.49,117.19Z"/><path class="cls-7" d="M77.92,130.95c.51.06,1.18-.22,1.33.61C78.72,131.55,78.06,131.81,77.92,130.95Z"/><path class="cls-7" d="M74,128.3a.6.6,0,0,1,.64.63C74.22,129,74,128.75,74,128.3Z"/><path class="cls-7" d="M74.7,128.95a.6.6,0,0,1,.63.64C74.87,129.62,74.66,129.41,74.7,128.95Z"/><path class="cls-9" d="M68.12,121.76a.6.6,0,0,1,.66.66A.58.58,0,0,1,68.12,121.76Z"/><path class="cls-9" d="M66.15,118.49a.59.59,0,0,1,.63.67A.58.58,0,0,1,66.15,118.49Z"/><path class="cls-7" d="M73.37,127.64a.61.61,0,0,1,.65.64C73.56,128.31,73.36,128.08,73.37,127.64Z"/><path class="cls-11" d="M103.46,40c-1.21,2.73-2.89,5.24-3.37,8.28-.56,3.56-1.29,7.08-1.82,10.64a13.25,13.25,0,0,1-.71,2.64c-1.2.49-.73,1.51-.51,2.22s1,.46,1.57.24a27.3,27.3,0,0,1,8.18-1.9,20.28,20.28,0,0,0,4.54-.77,34.84,34.84,0,0,1,5.45-1,11.48,11.48,0,0,1,6.34,1,6.44,6.44,0,0,1,3.41,8.32,1.52,1.52,0,0,1-1.67,1.08c-2.91,0-5.79-.33-8.68-.59-5.44-.48-10.91.16-16.36.5-1.62.1-2.5,1-2.55,2.11s-.83,2.36-.42,3.67a2.72,2.72,0,0,1-.13,1.92,10.05,10.05,0,0,0-1.16,5.25,3.06,3.06,0,0,1-.06,1.14,29.48,29.48,0,0,0-1.23,9.52h0A3.56,3.56,0,0,0,93,97.52c.21,2.83-.73,5.52-.87,8.32a16.89,16.89,0,0,1-.66,4.55,16.32,16.32,0,0,0-1.14,5.9c.09,2.72,0,5.44,0,8.16,0,1.08-.38,1.83-1.52,1.91-1,.07-2,0-2.94,0a1.34,1.34,0,0,1-1.31-1c-.22-1.36-.94-2.6-.82-4.07.15-1.95,0-3.92.06-5.87a2.08,2.08,0,0,0-.58-1.77c.81-.29,1.36-.65,1.3-1.71a25.35,25.35,0,0,1,1.15-10.22,9.65,9.65,0,0,0,.08-3.24A1.35,1.35,0,0,0,84.52,97c-1-.05-.66.89-.75,1.46-.12.84.26,1.72-.17,2.55a63.63,63.63,0,0,1,1-15.06,18.14,18.14,0,0,0-.28-9c-.4-1.22-.93-1.92-2.31-1.45-1,.35-1.65-.06-1.65-1.11s0-2,1.5-1.69c.33,1,1.23.81,1.72.48A5.34,5.34,0,0,0,85.69,71c1.56-4.32,3.43-8.52,4.81-12.92,1-3.05-.22-5.71-.3-8.54a1.27,1.27,0,0,0-1.14-1,38.89,38.89,0,0,1,1.58-6.62,11.3,11.3,0,0,1,2.23-4.37,2.36,2.36,0,0,0,.68-1.42c0-1.83,1.63-2.49,2.66-3.26,1.56-1.15,2.91-2.56,4.34-3.8a20.8,20.8,0,0,1,4.85-2.8c2.54-1.23,5.46-.88,8.17-1.2s5.36-1.13,8.21-.27c2.19.66,3.89,2,3.9,4.34,0,2.06-.87,3.93-1.26,5.9s-1.68,2.79-3.47,1.83c-1.24-.66-2.78-1.42-3.88-1.16-3.07.72-6.23-.21-9.26.91-.92.34-1.73.42-2,1.47h0C104.47,38,104,39,103.46,40Z"/><path class="cls-12" d="M105.84,38.1c.27-1.06,1.08-1.13,2-1.47,3-1.12,6.19-.19,9.26-.91,1.1-.26,2.64.5,3.88,1.16,1.79,1,3.08.14,3.47-1.83s1.27-3.84,1.26-5.9c0-2.33-1.71-3.68-3.9-4.34-2.85-.86-5.57,0-8.21.27s-5.63,0-8.17,1.2a20.8,20.8,0,0,0-4.85,2.8c-1.43,1.23-2.79,2.64-4.34,3.8-1,.76-2.66,1.43-2.66,3.26a2.36,2.36,0,0,1-.68,1.42,11.3,11.3,0,0,0-2.23,4.37,38.91,38.91,0,0,0-1.58,6.61,3.77,3.77,0,0,0-.72,2.71c.23,2.44-1,4.75-.71,7.2a.73.73,0,0,1-.52.75,105.09,105.09,0,0,1,1.52-13.5c.81-4,2.74-7.36,4.61-10.82A5.59,5.59,0,0,1,94.78,33c2.17-1.67,3.73-4,6.16-5.43a20.91,20.91,0,0,1,9.29-3.07c3.31-.2,6.6-.65,9.92-.59a8,8,0,0,1,5.58,2.23,12.32,12.32,0,0,1-.34,8.22,4.76,4.76,0,0,0-.22.61c-.53,2.51-2.6,3.63-5,2.4a9.37,9.37,0,0,0-4.7-.85C112.21,36.61,108.93,36.69,105.84,38.1Z"/><path class="cls-13" d="M94.28,94.28a29.48,29.48,0,0,1,1.23-9.52,3.06,3.06,0,0,0,.06-1.14,10.05,10.05,0,0,1,1.16-5.25,2.72,2.72,0,0,0,.13-1.92c-.41-1.31.37-2.43.42-3.67s.93-2,2.55-2.11c5.45-.34,10.92-1,16.36-.5,2.89.26,5.77.56,8.68.59a1.52,1.52,0,0,0,1.67-1.08,6.44,6.44,0,0,0-3.41-8.32,11.48,11.48,0,0,0-6.34-1,34.84,34.84,0,0,0-5.45,1,20.28,20.28,0,0,1-4.54.77A27.3,27.3,0,0,0,98.63,64c-.55.21-1.37.43-1.57-.24s-.69-1.73.51-2.22c-.18,1.4.28,1.81,1.74,1.43A94.76,94.76,0,0,1,115.13,60c2.83-.24,5.69-.59,8.51.67,4.28,1.91,5,6.64,3.34,10.16-.35.76-1,.79-1.64.75-3.47-.25-6.93-.59-10.4-.73-4.5-.18-9-.43-13.47.48-2.9.18-3,.34-3.46,3.12-.29,1.86-.73,3.69-1.09,5.53-.82,4.28-1.33,8.62-2,12.93C94.86,93.45,95,94.09,94.28,94.28Z"/><path class="cls-14" d="M87.11,59.2a.73.73,0,0,0,.52-.75c-.24-2.45.94-4.76.71-7.2a3.77,3.77,0,0,1,.72-2.71,1.27,1.27,0,0,1,1.14,1c.08,2.83,1.26,5.49.3,8.54-1.39,4.4-3.26,8.6-4.81,12.92a5.34,5.34,0,0,1-2.14,2.17c-.49.33-1.39.54-1.72-.48,3.28-3.36,4.4-7.61,5-12.07C86.92,60.15,87,59.68,87.11,59.2Z"/><path class="cls-12" d="M83.24,113.61a2.08,2.08,0,0,1,.58,1.77c0,2,.09,3.93-.06,5.87-.12,1.47.6,2.7.82,4.07a1.34,1.34,0,0,0,1.31,1c1,0,2,.06,2.94,0,1.14-.08,1.52-.83,1.52-1.91,0-2.72.09-5.44,0-8.16a16.32,16.32,0,0,1,1.14-5.9,16.89,16.89,0,0,0,.66-4.55c.14-2.8,1.08-5.49.87-8.32a3.56,3.56,0,0,1,1.26-3.23c-.54,3.54-.52,7.18-1.2,10.66-.5,2.59-.77,5.22-1.37,7.8-.91,3.94-.73,8-.7,12a2.36,2.36,0,0,1-1.66,2.5,7.05,7.05,0,0,1-4.94-.42,1,1,0,0,1-.56-.75c-.55-2.54-1.2-5.06-.79-7.73a14,14,0,0,0-.24-4.7,35.18,35.18,0,0,1-.23-8.62c0-.37.05-.78.53-.92A83.5,83.5,0,0,0,83.24,113.61Z"/><path class="cls-14" d="M83.24,113.61a83.5,83.5,0,0,1-.12-9.46l.49-3.15c.42-.83,0-1.71.17-2.55.08-.57-.3-1.52.75-1.46a1.35,1.35,0,0,1,1.24,1.46,9.65,9.65,0,0,1-.08,3.24,25.35,25.35,0,0,0-1.15,10.22C84.6,113,84,113.32,83.24,113.61Z"/><path class="cls-9" d="M136.81,34.75c-.58-.09-.58-.52-.61-1s.13-.92-.52-1a15.13,15.13,0,0,1-2.78-4.47q0-.7,0-1.4c.12-.39-.21-1,.57-1.24a5.32,5.32,0,0,0,1.28,3.9C136.17,31,137.26,32.57,136.81,34.75Z"/><path class="cls-12" d="M103.46,40c.51-1,1-2,2.37-1.87A4.81,4.81,0,0,1,103.46,40Z"/><path class="cls-1" d="M128.84,96.49l-.12.27c-.09,0-.23-.06-.26-.12s.06-.18.1-.27Z"/><path class="cls-7" d="M63.48,110.67c-.81-1.64-1.91-3.19-1.9-5.12,0-.91-.06-1.65-1.27-1.42a24.56,24.56,0,0,1,.1-4.59c.94.92-.06,2.37,1.12,2.93.8,2.46,1,5.08,2,7.47Z"/><path class="cls-10" d="M63.48,110.67l.06-.73a10.92,10.92,0,0,1,1.24,3.69C63.22,113.14,63.64,111.78,63.48,110.67Z"/><path class="cls-7" d="M79.89,131.06c-.15.12-.26.07-.34-.1Z"/><path class="cls-15" d="M136.81,34.75c.44-2.18-.65-3.74-2.08-5.17a5.32,5.32,0,0,1-1.28-3.9c-.78.26-.45.85-.57,1.24a.63.63,0,0,1-.66-.66c0-.92.48-2.22-1.31-2L127,20.72a18.34,18.34,0,0,0-8.35-4.22c-.35-.08-.42.25-.46.53-.52-.35-1.14-.21-1.7-.35.09-.89-.51-.93-1.14-.93l-5.36,0c-1.7-.36-3.25.49-4.88.64A11.18,11.18,0,0,0,99.51,19c-1.56.52-3.23.89-3.86,2.73a.92.92,0,0,1-.91.58,1.48,1.48,0,0,0-1.18.41c-1.63,1.71-3.54,3.11-5.27,4.7-2,1.8-3.31,4.18-4.88,6.32-2.52,3.44-4.41,7.33-6.63,11a3.11,3.11,0,0,0-.48,2.15l0,0C73.8,50.39,73,54.54,72,58.64c-.47,1.84-.54,3.76-1.24,5.54-.35.07-.67.23-.62.62.32,2.45-.5,4.79-.91,7.13-.39,2.18-.08,4.44-.92,6.57a10.2,10.2,0,0,0-.16,2.9,4.55,4.55,0,0,1-.28,2.34c-.87-1.09.32-2.85-1.27-3.53.42-.49.17-1.09.25-1.64a2.29,2.29,0,0,0,0-3.28c.49-.95,0-1.89,0-2.84,0-3.91-.2-7.83.1-11.71.17-2.11.62-4.22.58-6.36.84-.22.58-.91.63-1.46a7.51,7.51,0,0,1,.18-2.23,11,11,0,0,0,1.12-5.51c1-1.78,1.08-3.82,1.82-5.7a94.74,94.74,0,0,1,3.86-9.06,4.21,4.21,0,0,0,.24-.93c.68-.63,1.4-1.26.93-2.35h0c1.38.08.91-.94,1-1.65h0A8.87,8.87,0,0,0,80.93,22c1.69-2.5,4-4.27,6.14-6.31,2.47-1.14,4.51-3,7-4.09A1.58,1.58,0,0,0,95,10.55c1.26-.5,2.77-.31,3.83-1.38l.34-.34c1.59.73,2.58.54,3-.6l1-.1c.48.58,1,.3,1.6.16,2.46-.59,4.92-.26,7.42-.09,3.11.22,5.93,1.68,9,1.63h0c.13.94.81.66,1.38.62h0a1.17,1.17,0,0,0,.9,1.22c2.41.74,3.81,2.73,5.52,4.34.39.36.82.73.76,1.36-.1.95.54,1,1.24,1.05L131,19c0,.47.21.69.68.66a.6.6,0,0,1,.64.63,2.87,2.87,0,0,0,1.3,2.64h0c0,1-.27,2.07,1.31,2h0a.58.58,0,0,0,.61.68l.06.6c0,.53-.28,1.23.64,1.34h0c0,.63-1.11,1-.47,1.7.34.37.64-.49,1.11-.38l0,.61c.09,1-.55,2.31,1.26,2.34l0,1c0,.52-.24,1.2.63,1.33l0,.63c-.43,2-.43,2-2,.67Z"/><path class="cls-10" d="M69.09,81.82c-.12,1.93.37,3.9-.28,5.81q0-3,0-6a.15.15,0,0,1,.09-.11C69.08,81.5,69.05,81.68,69.09,81.82Z"/><path class="cls-8" d="M130.89,18.41c-.7,0-1.34-.11-1.24-1.05.07-.63-.37-1-.76-1.36-1.71-1.61-3.1-3.59-5.52-4.34a1.17,1.17,0,0,1-.9-1.22c3.37,1.11,5.71,3.53,7.84,6.21C130,17.39,130.94,17.74,130.89,18.41Z"/><path class="cls-10" d="M122.51,10.45c-.57,0-1.25.31-1.38-.62C121.67,9.85,122.27,9.74,122.51,10.45Z"/><path class="cls-7" d="M69.4,45.19a11,11,0,0,1-1.12,5.51,7.51,7.51,0,0,0-.18,2.23c0,.55.21,1.24-.63,1.46,0-.29-.07-.57-.38-.7a44,44,0,0,1,1.59-8.23Z"/><path class="cls-10" d="M76.31,46.87a3.11,3.11,0,0,1,.48-2.15c2.22-3.66,4.12-7.55,6.63-11,1.56-2.13,2.92-4.52,4.88-6.32,1.73-1.59,3.64-3,5.27-4.7a1.48,1.48,0,0,1,1.18-.41L91.21,26a25.26,25.26,0,0,0-5,5.27c-1.14,1.78-2.74,3.23-3.68,5.15l-1.63,2.63a26,26,0,0,0-2.77,5.08C77.37,44.93,77.56,46.4,76.31,46.87Z"/><path class="cls-8" d="M99.51,19a11.18,11.18,0,0,1,5.63-2.59c1.64-.15,3.18-1,4.88-.64.25.37.65.27,1,.31l-6.23,1c-.33.05-.81-.15-.85.46-1.63.27-2.84,1.47-4.36,2Z"/><path class="cls-7" d="M99.51,19l.08.52c-1.27.81-2.35,2-3.94,2.21C96.28,19.88,97.95,19.52,99.51,19Z"/><path class="cls-10" d="M87.07,15.72c-2.11,2-4.45,3.81-6.14,6.31a8.87,8.87,0,0,1-3.71,3.48l1-1.64a54.3,54.3,0,0,1,7.55-7.93c.42-.33.87-.62,1.3-.93Q87.07,15.37,87.07,15.72Z"/><path class="cls-8" d="M76.25,27.16c.47,1.09-.24,1.71-.93,2.35l0-.76A3.3,3.3,0,0,1,76.25,27.16Z"/><path class="cls-10" d="M77.22,25.51c-.06.71.41,1.72-1,1.65A1.53,1.53,0,0,1,77.22,25.51Z"/><path class="cls-9" d="M66.8,75.3a2.29,2.29,0,0,1,0,3.28Q66.8,76.94,66.8,75.3Z"/><path class="cls-7" d="M138.11,42l0-1.39c.74.1.63.84.57,1.14-.25,1.47.93,2.63.77,4.09-.09.81.69.64,1.21.65,0,1.3,0,2.61.05,3.9s-.43,1.27-1.3.7c-.69-1.9-.11-3.94-.64-5.89C138.54,44.15,137.74,43.18,138.11,42Z"/><path class="cls-10" d="M111,16.08c-.36,0-.76.06-1-.31l5.36,0c.64,0,1.24,0,1.14.93C114.76,15.81,112.86,16.25,111,16.08Z"/><path class="cls-9" d="M134.88,24.89c-1.58.1-1.31-1-1.31-2A1.78,1.78,0,0,1,134.88,24.89Z"/><path class="cls-9" d="M138.11,31.78c-1.81,0-1.16-1.39-1.26-2.34C137.82,29.93,137.52,31.09,138.11,31.78Z"/><path class="cls-9" d="M136.83,28.83c-.47-.11-.77.75-1.11.38-.64-.69.49-1.07.47-1.7C137,27.64,136.77,28.31,136.83,28.83Z"/><path class="cls-9" d="M136.19,27.51c-.92-.11-.61-.81-.64-1.34C136.38,26.32,136.14,27,136.19,27.51Z"/><path class="cls-9" d="M138.78,34.07c-.87-.13-.58-.81-.63-1.33C139,32.89,138.74,33.55,138.78,34.07Z"/><path class="cls-9" d="M135.49,25.56a.58.58,0,0,1-.61-.68A.57.57,0,0,1,135.49,25.56Z"/><path class="cls-9" d="M130.91,24.27c1.8-.24,1.27,1.07,1.31,2C131.38,25.86,131.42,24.88,130.91,24.27Z"/><path class="cls-8" d="M98.82,9.17c-1.06,1.07-2.57.89-3.83,1.38l-.57,0a.64.64,0,0,1,0-.16C95.85,9.72,97.2,9,98.82,9.17Z"/><path class="cls-7" d="M102.13,8.23c-.4,1.13-1.38,1.33-3,.6C100.07,8.26,101.17,8.6,102.13,8.23Z"/><path class="cls-7" d="M60.3,104.73c1.07.42.42,1.33.57,2l-.62,0,0-1.21Z"/><path class="cls-9" d="M131.64,19.64c-.47,0-.7-.19-.68-.66A.66.66,0,0,1,131.64,19.64Z"/></g></g></svg>